<svg xmlns="http://www.w3.org/2000/svg" width="91.333" height="87.853" viewBox="0 0 91.333 87.853">
  <g id="Grupo_1126920" data-name="Grupo 1126920" transform="translate(-7 -16.872)">
    <g id="Grupo_1126916" data-name="Grupo 1126916" transform="translate(7.5 23.717)">
      <path id="Trazado_988408" data-name="Trazado 988408" d="M25.845,99.126A21.911,21.911,0,0,1,38.566,79.232a.909.909,0,0,0,.461-1.173L34.706,67.625a.911.911,0,0,0-1.212-.483,34.894,34.894,0,0,0-3.845,2.012.9.9,0,0,1-1.107-.138l-3.16-3.16a.909.909,0,0,0-1.285,0l-9.613,9.613a.909.909,0,0,0,0,1.285l3.16,3.16a.9.9,0,0,1,.138,1.107,34.8,34.8,0,0,0-4.027,9.715.9.9,0,0,1-.88.684H8.409a.909.909,0,0,0-.909.909v13.6a.909.909,0,0,0,.909.909h4.466a.9.9,0,0,1,.88.684,34.718,34.718,0,0,0,1.3,4.143.91.91,0,0,0,1.2.515l10.434-4.322a.909.909,0,0,0,.5-1.157A21.859,21.859,0,0,1,25.845,99.126Z" transform="translate(-7.5 -63.031)" fill="#a79ba7"/>
      <path id="Trazado_988409" data-name="Trazado 988409" d="M160.46,114.512c9.773-7.927,11.962-18.988,11.772-30.4-1.235-4-2.664-8.338-3.436-10.224l-.137-.228a.9.9,0,0,1,.138-1.107l3.16-3.16a.909.909,0,0,0,0-1.285L162.345,58.5a.909.909,0,0,0-1.285,0l-3.16,3.16a.9.9,0,0,1-1.107.138,34.8,34.8,0,0,0-9.715-4.027.9.9,0,0,1-.684-.88V52.423a.909.909,0,0,0-.909-.909h-13.6a.909.909,0,0,0-.909.909v4.466a.9.9,0,0,1-.684.88,34.729,34.729,0,0,0-4.143,1.3.91.91,0,0,0-.515,1.2L129.962,70.7a.911.911,0,0,0,1.16.5,21.911,21.911,0,1,1-12.327,29.753.909.909,0,0,0-1.173-.461l-10.434,4.322a.911.911,0,0,0-.483,1.212,34.893,34.893,0,0,0,2.012,3.845.9.9,0,0,1-.138,1.107l-.358.358.612,4.624C124.311,126.149,145.414,124.2,160.46,114.512Z" transform="translate(-88.609 -51.514)" fill="#a79ba7"/>
      <path id="Trazado_988410" data-name="Trazado 988410" d="M172.308,185.716v13.6a.909.909,0,0,1-.909.909h-4.466a.9.9,0,0,0-.88.683,34.813,34.813,0,0,1-4.028,9.715.906.906,0,0,0,.138,1.107l3.161,3.159a.909.909,0,0,1,0,1.285l-9.613,9.613a.906.906,0,0,1-1.285,0l-3.161-3.159a.9.9,0,0,0-1.107-.138,34.841,34.841,0,0,1-9.715,4.026.9.9,0,0,0-.683.88v4.468a.909.909,0,0,1-.909.909h-13.6a.909.909,0,0,1-.909-.909v-4.468a.9.9,0,0,0-.683-.88,34.841,34.841,0,0,1-9.715-4.026.9.9,0,0,0-1.107.138l-3.161,3.159a.906.906,0,0,1-1.285,0l-9.613-9.613a.909.909,0,0,1,0-1.285l2.8-2.8a37.761,37.761,0,0,0,60.574-37.446,34.739,34.739,0,0,1,3.893,9.484.9.9,0,0,0,.88.685H171.4A.909.909,0,0,1,172.308,185.716Z" transform="translate(-81.974 -152.259)" fill="#918191"/>
    </g>
    <g id="Grupo_1126919" data-name="Grupo 1126919" transform="translate(7.5 17.542)">
      <path id="Trazado_988411" data-name="Trazado 988411" d="M7.5,194.985v3.5a.909.909,0,0,0,.909.909h4.466a.9.9,0,0,1,.88.685,35.015,35.015,0,0,0,1.3,4.142.91.91,0,0,0,1.2.514l10.435-4.322a.908.908,0,0,0,.5-1.156A21.936,21.936,0,0,1,30.1,178.718" transform="translate(-7.5 -149.423)" fill="none" stroke="#000" stroke-linecap="round" stroke-linejoin="round" stroke-miterlimit="10" stroke-width="1"/>
      <path id="Trazado_988412" data-name="Trazado 988412" d="M7.5,96.056v-3.73a.909.909,0,0,1,.909-.909h4.466a.9.9,0,0,0,.88-.683,34.813,34.813,0,0,1,4.028-9.715.905.905,0,0,0-.138-1.107l-3.161-3.159a.909.909,0,0,1,0-1.285L24.1,65.855a.906.906,0,0,1,1.285,0l3.161,3.159a.9.9,0,0,0,1.107.138,35.237,35.237,0,0,1,3.844-2.012.913.913,0,0,1,1.212.483l4.322,10.435a.909.909,0,0,1-.462,1.172,21.9,21.9,0,0,0-3.979,2.383" transform="translate(-7.5 -56.855)" fill="none" stroke="#000" stroke-linecap="round" stroke-linejoin="round" stroke-miterlimit="10" stroke-width="1"/>
      <path id="Trazado_988413" data-name="Trazado 988413" d="M399.544,288.818v3.921a.909.909,0,0,1-.909.909h-4.466a.9.9,0,0,0-.88.683,34.812,34.812,0,0,1-4.028,9.715.906.906,0,0,0,.138,1.107l3.161,3.159a.909.909,0,0,1,0,1.285l-9.613,9.613a.906.906,0,0,1-1.285,0l-3.161-3.159a.9.9,0,0,0-1.107-.138c-.383.231-.771.456-1.165.672" transform="translate(-309.211 -239.512)" fill="none" stroke="#000" stroke-linecap="round" stroke-linejoin="round" stroke-miterlimit="10" stroke-width="1"/>
      <path id="Trazado_988414" data-name="Trazado 988414" d="M143.156,124.982q-1.333.447-2.712.787a.9.9,0,0,0-.683.88v4.468a.909.909,0,0,1-.909.909h-13.6a.909.909,0,0,1-.909-.909v-4.468a.9.9,0,0,0-.683-.88,34.841,34.841,0,0,1-9.715-4.026.9.9,0,0,0-1.107.138l-3.161,3.159a.906.906,0,0,1-1.285,0l-9.613-9.613a.909.909,0,0,1,0-1.285l3.161-3.159a.906.906,0,0,0,.138-1.107,34.921,34.921,0,0,1-2.012-3.844.912.912,0,0,1,.483-1.214l10.435-4.32a.908.908,0,0,1,1.172.46,21.9,21.9,0,1,0,12.327-29.752.91.91,0,0,1-1.16-.5L119.006,60.27a.91.91,0,0,1,.514-1.2,34.606,34.606,0,0,1,4.144-1.3.9.9,0,0,0,.683-.88V52.427a.909.909,0,0,1,.909-.909h13.6a.909.909,0,0,1,.909.909v4.466a.9.9,0,0,0,.683.88,34.791,34.791,0,0,1,9.715,4.028.908.908,0,0,0,1.107-.138l3.161-3.161a.909.909,0,0,1,1.285,0l9.613,9.613a.909.909,0,0,1,0,1.285l-3.161,3.161a.9.9,0,0,0-.138,1.107,34.8,34.8,0,0,1,4.028,9.713.9.9,0,0,0,.88.685H171.4a.909.909,0,0,1,.909.909v3.313" transform="translate(-81.974 -45.343)" fill="none" stroke="#000" stroke-linecap="round" stroke-linejoin="round" stroke-miterlimit="10" stroke-width="1"/>
      <g id="Grupo_1126917" data-name="Grupo 1126917" transform="translate(28.007 0)">
        <line id="Línea_598" data-name="Línea 598" x2="2.496" y2="5.031" fill="none" stroke="#000" stroke-linecap="round" stroke-linejoin="round" stroke-miterlimit="10" stroke-width="1"/>
        <line id="Línea_599" data-name="Línea 599" x1="2.496" y2="5.031" transform="translate(8.237)" fill="none" stroke="#000" stroke-linecap="round" stroke-linejoin="round" stroke-miterlimit="10" stroke-width="1"/>
      </g>
      <g id="Grupo_1126918" data-name="Grupo 1126918" transform="translate(1.648 62.048)">
        <line id="Línea_600" data-name="Línea 600" y1="4.988" x2="2.582" transform="translate(6.345 4.63)" fill="none" stroke="#000" stroke-linecap="round" stroke-linejoin="round" stroke-miterlimit="10" stroke-width="1"/>
        <line id="Línea_601" data-name="Línea 601" y1="0.961" x2="5.533" fill="none" stroke="#000" stroke-linecap="round" stroke-linejoin="round" stroke-miterlimit="10" stroke-width="1"/>
      </g>
    </g>
  </g>
</svg>
