<svg xmlns="http://www.w3.org/2000/svg" width="93" height="79" viewBox="0 0 93 79">
  <g id="Grupo_1126970" data-name="Grupo 1126970" transform="translate(-820.051 -4170)">
    <rect id="Rect치ngulo_404438" data-name="Rect치ngulo 404438" width="93" height="79" rx="12" transform="translate(820.051 4170)" fill="#aab0fa"/>
    <g id="Grupo_1126740" data-name="Grupo 1126740">
      <rect id="Rect치ngulo_404781" data-name="Rect치ngulo 404781" width="63" height="63" transform="translate(832.051 4176)" fill="none"/>
      <g id="Grupo_1126739" data-name="Grupo 1126739" transform="translate(743.551 3991.5)">
        <g id="Layer2" transform="translate(97.5 193.5)">
          <g id="Grupo_1126738" data-name="Grupo 1126738">
            <path id="Trazado_988267" data-name="Trazado 988267" d="M126.7,231.783a25.65,25.65,0,0,1-2.679.9l-.6,5.5a22.173,22.173,0,0,1-6.43,0l-.6-5.5a16.89,16.89,0,0,1-5.131-2.125l-4.314,3.463a22.3,22.3,0,0,1-4.548-4.548l3.463-4.314a16.89,16.89,0,0,1-2.126-5.131l-5.5-.6a22.17,22.17,0,0,1,0-6.43l5.5-.6a16.889,16.889,0,0,1,2.126-5.131l-3.463-4.314a22.3,22.3,0,0,1,4.548-4.548l4.314,3.463a16.889,16.889,0,0,1,5.131-2.126l.6-5.5a22.173,22.173,0,0,1,6.43,0l.6,5.5a16.889,16.889,0,0,1,5.131,2.126l4.314-3.463a22.305,22.305,0,0,1,4.548,4.548l-3.463,4.314a16.889,16.889,0,0,1,2.126,5.131l5.5.6a22.173,22.173,0,0,1,0,6.43l-5.5.6a19.414,19.414,0,0,1-.766,2.4Zm-6.5-22.5a6.924,6.924,0,1,1-6.924,6.924A6.927,6.927,0,0,1,120.207,209.283Z" transform="translate(-97.207 -193.207)" fill="#ccc" fill-rule="evenodd"/>
            <g id="Grupo_1126736" data-name="Grupo 1126736" transform="translate(16.071 16.065)">
              <circle id="Elipse_12133" data-name="Elipse 12133" cx="6.924" cy="6.924" r="6.924" fill="#fff"/>
            </g>
            <g id="Grupo_1126737" data-name="Grupo 1126737" transform="translate(29.337 29.078)">
              <circle id="Elipse_12134" data-name="Elipse 12134" cx="7.931" cy="7.931" r="7.931" fill="red"/>
            </g>
            <path id="Trazado_988268" data-name="Trazado 988268" d="M126.448,233.127a8.725,8.725,0,1,0,10.808-10.969c.127-.366.247-.746.349-1.112l4.954-.542a.793.793,0,0,0,.7-.674,22.96,22.96,0,0,0,0-6.659.793.793,0,0,0-.7-.674l-4.949-.542a17.688,17.688,0,0,0-1.8-4.338l3.117-3.883a.8.8,0,0,0,.017-.969,23.022,23.022,0,0,0-4.711-4.711.8.8,0,0,0-.969.017l-3.883,3.117a17.625,17.625,0,0,0-4.338-1.8s-.542-4.949-.542-4.949a.793.793,0,0,0-.674-.7,22.96,22.96,0,0,0-6.659,0,.793.793,0,0,0-.674.7l-.542,4.949a17.687,17.687,0,0,0-4.338,1.8s-3.883-3.117-3.883-3.117a.8.8,0,0,0-.969-.017,23.022,23.022,0,0,0-4.711,4.711.8.8,0,0,0,.017.969l3.117,3.883a17.626,17.626,0,0,0-1.8,4.338l-4.949.542a.793.793,0,0,0-.7.674,22.959,22.959,0,0,0,0,6.659.793.793,0,0,0,.7.674l4.949.542a17.686,17.686,0,0,0,1.8,4.338s-3.117,3.883-3.117,3.883a.8.8,0,0,0-.017.969,23.023,23.023,0,0,0,4.711,4.711.8.8,0,0,0,.969-.017l3.883-3.117a17.627,17.627,0,0,0,4.338,1.8s.542,4.949.542,4.949a.793.793,0,0,0,.674.7,22.96,22.96,0,0,0,6.659,0,.793.793,0,0,0,.674-.7l.544-4.962C125.489,233.466,125.99,233.293,126.448,233.127Zm9.238-11.28a16.7,16.7,0,0,0,.516-1.708.794.794,0,0,1,.685-.609l4.881-.535a21.346,21.346,0,0,0,0-4.99l-4.881-.535a.794.794,0,0,1-.685-.609,16.106,16.106,0,0,0-2.026-4.89.8.8,0,0,1,.054-.917l3.072-3.829a21.452,21.452,0,0,0-3.528-3.528l-3.829,3.072a.8.8,0,0,1-.917.054,16.106,16.106,0,0,0-4.89-2.026.794.794,0,0,1-.609-.685L123,195.232a21.346,21.346,0,0,0-4.99,0l-.535,4.881a.794.794,0,0,1-.609.685,16.106,16.106,0,0,0-4.89,2.026.8.8,0,0,1-.917-.054l-3.829-3.072a21.453,21.453,0,0,0-3.528,3.528l3.072,3.829a.8.8,0,0,1,.054.917,16.106,16.106,0,0,0-2.026,4.89.794.794,0,0,1-.685.609L99.232,214a21.346,21.346,0,0,0,0,4.99l4.881.535a.794.794,0,0,1,.685.609,16.106,16.106,0,0,0,2.026,4.89.8.8,0,0,1-.054.917l-3.072,3.829a21.453,21.453,0,0,0,3.528,3.528l3.829-3.072a.8.8,0,0,1,.917-.054,16.106,16.106,0,0,0,4.89,2.026.794.794,0,0,1,.609.685l.535,4.881a21.346,21.346,0,0,0,4.99,0l.535-4.881a.794.794,0,0,1,.609-.685,18.9,18.9,0,0,0,1.975-.641,8.632,8.632,0,0,1-.062-1.037,8.727,8.727,0,0,1,8.724-8.724A8.635,8.635,0,0,1,135.686,221.847Zm-.91,1.539a7.138,7.138,0,1,1-7.138,7.138A7.141,7.141,0,0,1,134.776,223.386Zm-1.121,7.138-2.452,2.451a.794.794,0,0,0,1.121,1.123l2.452-2.452,2.452,2.452a.794.794,0,0,0,1.121-1.123l-2.452-2.451,2.452-2.452a.793.793,0,0,0-1.121-1.121l-2.452,2.452-2.452-2.452a.793.793,0,0,0-1.121,1.121ZM120.5,208.783a7.717,7.717,0,1,0,7.717,7.717A7.721,7.721,0,0,0,120.5,208.783Zm0,1.586a6.131,6.131,0,1,1-6.131,6.131A6.134,6.134,0,0,1,120.5,210.369Z" transform="translate(-97.5 -193.5)" fill-rule="evenodd"/>
          </g>
        </g>
      </g>
    </g>
  </g>
</svg>
