<svg xmlns="http://www.w3.org/2000/svg" width="93" height="79" viewBox="0 0 93 79">
  <g id="Grupo_1126971" data-name="Grupo 1126971" transform="translate(-820.051 -4306.613)">
    <rect id="Rect치ngulo_415799" data-name="Rect치ngulo 415799" width="93" height="79" rx="12" transform="translate(820.051 4306.613)" fill="#aab0fa"/>
    <g id="Grupo_1126735" data-name="Grupo 1126735">
      <rect id="Rect치ngulo_404781" data-name="Rect치ngulo 404781" width="63" height="63" transform="translate(835.051 4315)" fill="none"/>
      <g id="Grupo_1126734" data-name="Grupo 1126734" transform="translate(840.853 4322)">
        <path id="Trazado_988258" data-name="Trazado 988258" d="M36.737,289.59a2.919,2.919,0,0,1,.571,2.6l-2.2,8.346a2.926,2.926,0,0,1-3.566,2.076h0a2.926,2.926,0,0,1-2.076-3.566l2.2-8.346a2.919,2.919,0,0,1,1.779-1.977" transform="translate(-24.615 -261.587)" fill="#52d6c6"/>
        <g id="Grupo_1126733" data-name="Grupo 1126733" transform="translate(2.992 0.787)">
          <circle id="Elipse_12131" data-name="Elipse 12131" cx="11.516" cy="11.516" r="11.516" transform="translate(0)" fill="#6c489c"/>
          <path id="Trazado_988259" data-name="Trazado 988259" d="M74.625,227.592,72.9,234.354a1.707,1.707,0,0,1-2.08,1.211h0a1.707,1.707,0,0,1-1.211-2.08l1.728-6.762Z" transform="translate(-64.015 -206.203)" fill="#6c489c"/>
        </g>
        <circle id="Elipse_12132" data-name="Elipse 12132" cx="8.712" cy="8.712" r="8.712" transform="translate(5.795 3.59)" fill="#bdf6ec"/>
        <path id="Trazado_988260" data-name="Trazado 988260" d="M57.725,60.589l-14.09,8.827a8.751,8.751,0,0,0,2.743,4.4l14.111-8.84A8.75,8.75,0,0,0,57.725,60.589Z" transform="translate(-37.543 -54.895)" fill="#fff"/>
        <path id="Trazado_988261" data-name="Trazado 988261" d="M203.763,192.242l3.246-1.212-1.947-5.215-3.246,1.212a2.135,2.135,0,0,1-2.689-2.886l1.438-3.152-5.064-2.31-1.438,3.152a2.135,2.135,0,0,1-3.942-.139l-1.212-3.246-5.215,1.947,1.212,3.246a2.135,2.135,0,0,1-2.886,2.689l-3.152-1.438-.622,1.363-1.07,2.347-.618,1.355,3.152,1.438a2.135,2.135,0,0,1-.139,3.942l-3.246,1.212,1.947,5.215,3.246-1.212a2.135,2.135,0,0,1,2.689,2.886l-1.438,3.152,5.064,2.31,1.438-3.152a2.135,2.135,0,0,1,3.942.139l1.212,3.246,5.215-1.947-1.212-3.246a2.135,2.135,0,0,1,2.886-2.689l3.152,1.438,2.31-5.065-3.152-1.438A2.135,2.135,0,0,1,203.763,192.242Zm-10.726,5.216a3.918,3.918,0,1,1,2.3-5.041A3.918,3.918,0,0,1,193.037,197.458Z" transform="translate(-157.763 -161.676)" fill="#bdf6ec"/>
        <path id="Trazado_988262" data-name="Trazado 988262" d="M45.3,27.756A11.518,11.518,0,0,1,29.395,43.679,11.516,11.516,0,1,0,45.3,27.756Z" transform="translate(-24.641 -25.147)" fill="#0e303f" opacity="0.1"/>
        <path id="Trazado_988263" data-name="Trazado 988263" d="M265.572,263.289l3.246-1.212-1.947-5.215-3.246,1.212a2.178,2.178,0,0,1-.679.138c-.582,14.984-11.533,17.162-17.405,17.311l-.963,2.111,5.065,2.31,1.438-3.152a2.135,2.135,0,0,1,3.942.139l1.212,3.246,5.215-1.947-1.212-3.246a2.135,2.135,0,0,1,2.886-2.689l3.152,1.438,2.31-5.064-3.152-1.438A2.135,2.135,0,0,1,265.572,263.289Z" transform="translate(-219.602 -232.723)" opacity="0.1"/>
        <path id="Trazado_988264" data-name="Trazado 988264" d="M43.873,30.115a9.436,9.436,0,1,0,6.714,11.532A9.373,9.373,0,0,0,43.873,30.115ZM33.739,37.2a8,8,0,0,1,7.712-5.953,8.041,8.041,0,0,1,2.053.268,7.957,7.957,0,0,1,2.321,1.032l-12.31,7.488A7.949,7.949,0,0,1,33.739,37.2Zm.078,4.344,13.209-8.035a8.049,8.049,0,0,1,2,3.164l-13.32,8.1A8.051,8.051,0,0,1,33.817,41.542Zm15.372-.264a7.988,7.988,0,0,1-12.331,4.488L49.379,38.15A7.943,7.943,0,0,1,49.189,41.278Z" transform="translate(-27.026 -26.998)"/>
        <path id="Trazado_988265" data-name="Trazado 988265" d="M46.184,31.181l3.246-1.212a.723.723,0,0,0,.424-.93l-1.947-5.215a.723.723,0,0,0-.93-.424L43.73,24.612A1.412,1.412,0,0,1,41.952,22.7l1.438-3.152a.723.723,0,0,0-.358-.958l-5.065-2.31a.723.723,0,0,0-.958.358l-1.438,3.152a1.412,1.412,0,0,1-2.607-.092l-1.212-3.246a.723.723,0,0,0-.93-.424l-5.215,1.947a.723.723,0,0,0-.424.93L26.4,22.154a1.412,1.412,0,0,1-1.908,1.778l-3.152-1.438a.724.724,0,0,0-.143-.048,12.238,12.238,0,1,0-12.161.775c0,.006,0,.011-.005.017L8.15,26.554a3.651,3.651,0,0,0-1.867,2.309l-2.2,8.345a3.641,3.641,0,0,0,7.04,1.859l2.2-8.345a3.651,3.651,0,0,0-.484-2.93l.876-3.316c0-.005,0-.01,0-.015.247.015.494.023.74.023a12.154,12.154,0,0,0,5.865-1.514l-.568,1.244a.723.723,0,1,0,1.316.6l.322-.705,2.494,1.138a2.858,2.858,0,0,0,3.863-3.6l-.959-2.568,3.86-1.441.959,2.569a2.858,2.858,0,0,0,5.277.186L38.026,17.9l3.749,1.71L40.637,22.1a2.858,2.858,0,0,0,3.6,3.864l2.568-.959,1.441,3.86-2.568.959a2.858,2.858,0,0,0-.186,5.277l2.494,1.138-1.71,3.749-2.495-1.138a2.858,2.858,0,0,0-3.863,3.6l.959,2.568-3.86,1.441-.959-2.568a2.858,2.858,0,0,0-5.277-.186L29.642,46.2l-3.749-1.71L27.031,42a2.858,2.858,0,0,0-3.6-3.864l-2.568.959-1.441-3.86,2.568-.959A2.858,2.858,0,0,0,22.177,29l-2.494-1.138.318-.7a.723.723,0,1,0-1.316-.6l-.618,1.355a.723.723,0,0,0,.358.958l3.152,1.438a1.412,1.412,0,0,1-.092,2.607l-3.246,1.212a.723.723,0,0,0-.424.93l1.947,5.215a.723.723,0,0,0,.93.424l3.246-1.212A1.412,1.412,0,0,1,25.715,41.4l-1.438,3.152a.723.723,0,0,0,.358.958l5.065,2.31a.723.723,0,0,0,.958-.358L32.1,44.307A1.412,1.412,0,0,1,34.7,44.4l1.212,3.246a.723.723,0,0,0,.93.424l5.215-1.947a.723.723,0,0,0,.424-.93l-1.212-3.246a1.412,1.412,0,0,1,1.908-1.778l3.152,1.438a.723.723,0,0,0,.958-.358l2.31-5.065a.723.723,0,0,0-.358-.958l-3.152-1.438a1.412,1.412,0,0,1,.093-2.607Zm-34.259-.828L9.721,38.7a2.195,2.195,0,0,1-4.244-1.121l2.2-8.345a2.147,2.147,0,0,1,.1-.3,2.439,2.439,0,0,0,.28.728,2.416,2.416,0,0,0,3.313.875,2.442,2.442,0,0,0,.6-.5A2.166,2.166,0,0,1,11.925,30.353Zm-.818-1.662a.979.979,0,0,1-1.893-.5l1.163-4.406q.459.161.936.288c.318.084.637.153.957.211Zm8.762-7.124a10.793,10.793,0,1,1,5-6.571A10.723,10.723,0,0,1,19.868,21.567Z" transform="translate(0 0)"/>
        <path id="Trazado_988266" data-name="Trazado 988266" d="M292.173,300.522a4.641,4.641,0,1,0-2.421-2.6A4.627,4.627,0,0,0,292.173,300.522Zm.809-7.215a3.195,3.195,0,1,1-1.875,4.111A3.179,3.179,0,0,1,292.981,293.306Z" transform="translate(-260.265 -264.249)"/>
      </g>
    </g>
  </g>
</svg>
