<svg xmlns="http://www.w3.org/2000/svg" width="73" height="63" viewBox="0 0 73 63">
  <g id="Grupo_1126972" data-name="Grupo 1126972" transform="translate(-822.051 -4543)">
    <rect id="Rect치ngulo_415803" data-name="Rect치ngulo 415803" width="73" height="63" rx="12" transform="translate(822.051 4543)" fill="#aab0fa"/>
    <g id="Grupo_1126790" data-name="Grupo 1126790">
      <rect id="Rect치ngulo_404781" data-name="Rect치ngulo 404781" width="57" height="57" transform="translate(830.051 4546)" fill="none"/>
      <g id="Grupo_1126789" data-name="Grupo 1126789" transform="translate(823.801 4523.75)">
        <g id="Grupo_1126742" data-name="Grupo 1126742" transform="translate(16.042 41.326)">
          <g id="Grupo_1126741" data-name="Grupo 1126741">
            <path id="Trazado_988269" data-name="Trazado 988269" d="M37.314,84.334a3.173,3.173,0,0,1-2.667,2.742c2.119.1,2.647,2.879,2.647,2.879.045-1.982,2.728-2.909,2.728-2.909C38.012,86.927,37.314,84.334,37.314,84.334Z" transform="translate(-34.647 -84.334)" fill="#d7e057"/>
          </g>
        </g>
        <g id="Grupo_1126744" data-name="Grupo 1126744" transform="translate(15.734 41.019)">
          <g id="Grupo_1126743" data-name="Grupo 1126743" transform="translate(0 0)">
            <path id="Trazado_988270" data-name="Trazado 988270" d="M38.848,85.547c-1.762-.105-2.423-2.462-2.43-2.486a.307.307,0,0,0-.6.054,2.843,2.843,0,0,1-2.407,2.464.307.307,0,0,0,.032.611c1.849.087,2.355,2.6,2.36,2.63a.307.307,0,0,0,.3.249h.026a.307.307,0,0,0,.282-.3c.04-1.743,2.5-2.617,2.522-2.625a.307.307,0,0,0-.082-.6Zm-2.778,2.119a3.58,3.58,0,0,0-1.554-1.818,3.3,3.3,0,0,0,1.68-1.694A3.751,3.751,0,0,0,37.9,85.94,4.367,4.367,0,0,0,36.069,87.666Z" transform="translate(-33.147 -82.834)" fill="#3a312a"/>
          </g>
        </g>
        <g id="Grupo_1126746" data-name="Grupo 1126746" transform="translate(12.378 44.804)">
          <g id="Grupo_1126745" data-name="Grupo 1126745" transform="translate(0)">
            <path id="Trazado_988271" data-name="Trazado 988271" d="M18.647,101.314a2.245,2.245,0,0,1-1.887,1.94c1.5.07,1.872,2.037,1.872,2.037.032-1.4,1.93-2.057,1.93-2.057C19.14,103.148,18.647,101.314,18.647,101.314Z" transform="translate(-16.76 -101.314)" fill="#d7e057"/>
          </g>
        </g>
        <g id="Grupo_1126748" data-name="Grupo 1126748" transform="translate(12.071 44.496)">
          <g id="Grupo_1126747" data-name="Grupo 1126747" transform="translate(0)">
            <path id="Trazado_988272" data-name="Trazado 988272" d="M19.388,101.734c-1.181-.071-1.633-1.676-1.637-1.693a.307.307,0,0,0-.6.054,1.924,1.924,0,0,1-1.626,1.662.307.307,0,0,0,.032.611c1.236.058,1.582,1.77,1.585,1.787a.307.307,0,0,0,.3.25h.026a.307.307,0,0,0,.282-.3c.027-1.169,1.706-1.768,1.723-1.774a.307.307,0,0,0-.082-.6Zm-1.963,1.392a2.623,2.623,0,0,0-.911-1.081,2.448,2.448,0,0,0,1-1.007,2.744,2.744,0,0,0,1.012,1.07A3.209,3.209,0,0,0,17.425,103.125Z" transform="translate(-15.26 -99.814)" fill="#3a312a"/>
          </g>
        </g>
        <g id="Grupo_1126750" data-name="Grupo 1126750" transform="translate(12.378 39.344)">
          <g id="Grupo_1126749" data-name="Grupo 1126749" transform="translate(0)">
            <path id="Trazado_988273" data-name="Trazado 988273" d="M18.647,74.657A2.245,2.245,0,0,1,16.76,76.6c1.5.071,1.872,2.036,1.872,2.036.032-1.4,1.93-2.057,1.93-2.057C19.14,76.491,18.647,74.657,18.647,74.657Z" transform="translate(-16.76 -74.657)" fill="#d7e057"/>
          </g>
        </g>
        <g id="Grupo_1126752" data-name="Grupo 1126752" transform="translate(12.071 39.037)">
          <g id="Grupo_1126751" data-name="Grupo 1126751" transform="translate(0 0)">
            <path id="Trazado_988274" data-name="Trazado 988274" d="M19.388,75.076c-1.181-.071-1.633-1.676-1.637-1.692a.307.307,0,0,0-.6.054A1.924,1.924,0,0,1,15.521,75.1a.307.307,0,0,0,.031.611c1.236.058,1.582,1.77,1.585,1.787a.307.307,0,0,0,.3.25h.026a.307.307,0,0,0,.282-.3c.027-1.169,1.706-1.768,1.723-1.774a.307.307,0,0,0-.082-.6Zm-1.963,1.392a2.625,2.625,0,0,0-.911-1.081,2.448,2.448,0,0,0,1-1.007,2.742,2.742,0,0,0,1.012,1.07A3.214,3.214,0,0,0,17.425,76.468Z" transform="translate(-15.26 -73.157)" fill="#3a312a"/>
          </g>
        </g>
        <g id="Grupo_1126754" data-name="Grupo 1126754" transform="translate(42.834 30.557)">
          <g id="Grupo_1126753" data-name="Grupo 1126753" transform="translate(0 0)">
            <path id="Trazado_988275" data-name="Trazado 988275" d="M168.332,31.75H166.1a.628.628,0,0,0-.628.628v4.069a.628.628,0,0,0,.628.628h2.234a.628.628,0,0,0,.628-.628V32.378A.628.628,0,0,0,168.332,31.75Z" transform="translate(-165.471 -31.75)" fill="#d7e057"/>
          </g>
        </g>
        <g id="Grupo_1126756" data-name="Grupo 1126756" transform="translate(42.527 30.25)">
          <g id="Grupo_1126755" data-name="Grupo 1126755" transform="translate(0)">
            <path id="Trazado_988276" data-name="Trazado 988276" d="M167.14,30.25h-2.234a.936.936,0,0,0-.935.935v4.069a.936.936,0,0,0,.935.935h2.234a.936.936,0,0,0,.935-.935V31.185A.936.936,0,0,0,167.14,30.25Zm.321,5a.321.321,0,0,1-.321.321h-2.234a.321.321,0,0,1-.321-.321V31.185a.321.321,0,0,1,.321-.321h2.234a.321.321,0,0,1,.321.321Z" transform="translate(-163.972 -30.25)" fill="#3a312a"/>
          </g>
        </g>
        <g id="Grupo_1126758" data-name="Grupo 1126758" transform="translate(52.444 35.075)">
          <g id="Grupo_1126757" data-name="Grupo 1126757" transform="translate(0 0)">
            <path id="Trazado_988277" data-name="Trazado 988277" d="M218.2,57.3l-5.8-3.488,1.173,3.215,3.515,2.115a1.079,1.079,0,0,0,1.232-.085,1.046,1.046,0,0,0,.244-.281A1.075,1.075,0,0,0,218.2,57.3Z" transform="translate(-212.398 -53.81)" fill="#87796f"/>
          </g>
        </g>
        <g id="Grupo_1126760" data-name="Grupo 1126760" transform="translate(52.137 34.768)">
          <g id="Grupo_1126759" data-name="Grupo 1126759" transform="translate(0 0)">
            <path id="Trazado_988278" data-name="Trazado 988278" d="M217.79,56.692a1.371,1.371,0,0,0-.628-.851l-5.8-3.488a.307.307,0,0,0-.447.368l1.173,3.215a.308.308,0,0,0,.13.158l3.515,2.115a1.389,1.389,0,0,0,1.581-.108,1.346,1.346,0,0,0,.316-.362A1.374,1.374,0,0,0,217.79,56.692Zm-.684.73h0a.732.732,0,0,1-.173.2.773.773,0,0,1-.88.061l-3.422-2.059-.838-2.3,5.053,3.04a.768.768,0,0,1,.261,1.054Z" transform="translate(-210.898 -52.31)" fill="#3a312a"/>
          </g>
        </g>
        <g id="Grupo_1126762" data-name="Grupo 1126762" transform="translate(22.917 39.417)">
          <g id="Grupo_1126761" data-name="Grupo 1126761">
            <path id="Trazado_988279" data-name="Trazado 988279" d="M88.245,79.926a3.679,3.679,0,0,1-1.878-3.208V75.012h-14.4v1.706a3.679,3.679,0,0,1-1.878,3.208,3.679,3.679,0,0,0-1.878,3.208V101.9a3.679,3.679,0,0,0,3.679,3.679H86.444a3.679,3.679,0,0,0,3.679-3.679V83.133A3.679,3.679,0,0,0,88.245,79.926Z" transform="translate(-68.217 -75.012)" fill="#8ac6dd"/>
          </g>
        </g>
        <g id="Grupo_1126764" data-name="Grupo 1126764" transform="translate(22.609 39.11)">
          <g id="Grupo_1126763" data-name="Grupo 1126763" transform="translate(0 0)">
            <path id="Trazado_988280" data-name="Trazado 988280" d="M87.2,78.464a3.376,3.376,0,0,1-1.721-2.94V73.818a.307.307,0,0,0-.307-.307h-14.4a.307.307,0,0,0-.307.307v1.706a3.376,3.376,0,0,1-1.721,2.94,3.99,3.99,0,0,0-2.034,3.476v7.188a.307.307,0,0,0,.614,0V81.94A3.375,3.375,0,0,1,69.052,79a3.99,3.99,0,0,0,2.034-3.476v-1.4H84.868v1.4A3.991,3.991,0,0,0,86.9,79a3.375,3.375,0,0,1,1.721,2.94V100.7a3.375,3.375,0,0,1-3.371,3.371H70.7a3.375,3.375,0,0,1-3.372-3.371V91.938a.307.307,0,1,0-.614,0V100.7a3.99,3.99,0,0,0,3.986,3.986H85.251a3.99,3.99,0,0,0,3.986-3.986V81.94A3.991,3.991,0,0,0,87.2,78.464Z" transform="translate(-66.717 -73.511)" fill="#3a312a"/>
          </g>
        </g>
        <g id="Grupo_1126766" data-name="Grupo 1126766" transform="translate(24.888 34.858)">
          <g id="Grupo_1126765" data-name="Grupo 1126765" transform="translate(0)">
            <path id="Trazado_988281" data-name="Trazado 988281" d="M77.842,52.75v2.913a1.647,1.647,0,0,0,1.647,1.647h14.67a1.647,1.647,0,0,0,1.647-1.647V52.75Z" transform="translate(-77.842 -52.75)" fill="#f16c7a"/>
          </g>
        </g>
        <g id="Grupo_1126768" data-name="Grupo 1126768" transform="translate(24.581 34.551)">
          <g id="Grupo_1126767" data-name="Grupo 1126767" transform="translate(0 0)">
            <path id="Trazado_988282" data-name="Trazado 988282" d="M94.612,51.25H76.649a.307.307,0,0,0-.307.307V54.47A1.956,1.956,0,0,0,78.3,56.424h14.67A1.956,1.956,0,0,0,94.92,54.47V51.557A.307.307,0,0,0,94.612,51.25Zm-.307,3.22a1.341,1.341,0,0,1-1.339,1.339H78.3a1.341,1.341,0,0,1-1.339-1.339V51.864H94.305Z" transform="translate(-76.342 -51.25)" fill="#3a312a"/>
          </g>
        </g>
        <g id="Grupo_1126770" data-name="Grupo 1126770" transform="translate(19.339 31.581)">
          <g id="Grupo_1126769" data-name="Grupo 1126769" transform="translate(0)">
            <path id="Trazado_988283" data-name="Trazado 988283" d="M66.392,36.75H50.75v3.277H74.244V36.75Z" transform="translate(-50.75 -36.75)" fill="#87796f"/>
          </g>
        </g>
        <g id="Grupo_1126772" data-name="Grupo 1126772" transform="translate(19.032 31.274)">
          <g id="Grupo_1126771" data-name="Grupo 1126771" transform="translate(0)">
            <path id="Trazado_988284" data-name="Trazado 988284" d="M73.051,35.25H65.2a.307.307,0,0,0,0,.614h7.545v2.662H49.864V35.864h12.62a.307.307,0,1,0,0-.614H49.557a.307.307,0,0,0-.307.307v3.277a.307.307,0,0,0,.307.307H73.051a.307.307,0,0,0,.307-.307V35.557A.307.307,0,0,0,73.051,35.25Z" transform="translate(-49.25 -35.25)" fill="#3a312a"/>
          </g>
        </g>
        <g id="Grupo_1126774" data-name="Grupo 1126774" transform="translate(11.557 31.053)">
          <g id="Grupo_1126773" data-name="Grupo 1126773" transform="translate(0 0)">
            <path id="Trazado_988285" data-name="Trazado 988285" d="M19.837,34.169H13.446a.7.7,0,0,0-.7.7v2.942a.7.7,0,0,0,.7.7h6.391a.7.7,0,0,0,.7-.7V34.865A.7.7,0,0,0,19.837,34.169Z" transform="translate(-12.75 -34.169)" fill="#87796f"/>
          </g>
        </g>
        <g id="Grupo_1126776" data-name="Grupo 1126776" transform="translate(11.25 30.745)">
          <g id="Grupo_1126775" data-name="Grupo 1126775" transform="translate(0 0)">
            <path id="Trazado_988286" data-name="Trazado 988286" d="M18.644,32.669H12.253a1,1,0,0,0-1,1v2.942a1,1,0,0,0,1,1h6.391a1,1,0,0,0,1-1V33.672A1,1,0,0,0,18.644,32.669Zm.389,3.945a.389.389,0,0,1-.389.389H12.253a.389.389,0,0,1-.388-.389V33.672a.389.389,0,0,1,.388-.388h6.391a.389.389,0,0,1,.389.388Z" transform="translate(-11.25 -32.669)" fill="#3a312a"/>
          </g>
        </g>
        <g id="Grupo_1126778" data-name="Grupo 1126778" transform="translate(46.323 31.684)">
          <g id="Grupo_1126777" data-name="Grupo 1126777" transform="translate(0 0)">
            <path id="Trazado_988287" data-name="Trazado 988287" d="M193.366,53.687l-5.585-15.368a1.626,1.626,0,0,0-1.528-1.069h-3.746V40.5h2.607l5.2,14.3a1.626,1.626,0,0,0,1.528,1.069,1.6,1.6,0,0,0,.557-.1A1.626,1.626,0,0,0,193.366,53.687Z" transform="translate(-182.508 -37.25)" fill="#8ac6dd"/>
          </g>
        </g>
        <g id="Grupo_1126780" data-name="Grupo 1126780" transform="translate(46.016 31.376)">
          <g id="Grupo_1126779" data-name="Grupo 1126779" transform="translate(0 0)">
            <path id="Trazado_988288" data-name="Trazado 988288" d="M192.462,52.389l-5.585-15.368a1.939,1.939,0,0,0-1.817-1.271h-3.746a.307.307,0,0,0-.307.307v3.254a.307.307,0,0,0,.307.307h2.392l5.122,14.1a1.938,1.938,0,0,0,1.817,1.271,1.9,1.9,0,0,0,.663-.117,1.933,1.933,0,0,0,1.154-2.48Zm-.62,1.219a1.315,1.315,0,0,1-.747.684,1.291,1.291,0,0,1-.45.079,1.322,1.322,0,0,1-1.239-.867l-5.2-14.3a.307.307,0,0,0-.289-.2h-2.3v-2.64h3.439a1.322,1.322,0,0,1,1.239.867L191.885,52.6A1.307,1.307,0,0,1,191.843,53.608Z" transform="translate(-181.008 -35.75)" fill="#3a312a"/>
          </g>
        </g>
        <g id="Grupo_1126782" data-name="Grupo 1126782" transform="translate(26.804 50.218)">
          <g id="Grupo_1126781" data-name="Grupo 1126781" transform="translate(0 0)">
            <circle id="Elipse_12135" data-name="Elipse 12135" cx="7.065" cy="7.065" r="7.065" fill="#d7e057"/>
          </g>
        </g>
        <g id="Grupo_1126784" data-name="Grupo 1126784" transform="translate(26.497 49.911)">
          <g id="Grupo_1126783" data-name="Grupo 1126783">
            <path id="Trazado_988289" data-name="Trazado 988289" d="M93.071,126.25a7.373,7.373,0,1,0,7.373,7.373A7.381,7.381,0,0,0,93.071,126.25Zm0,14.131a6.758,6.758,0,1,1,6.758-6.758A6.766,6.766,0,0,1,93.071,140.381Z" transform="translate(-85.698 -126.25)" fill="#3a312a"/>
          </g>
        </g>
        <g id="Grupo_1126786" data-name="Grupo 1126786" transform="translate(37.687 39.724)">
          <g id="Grupo_1126785" data-name="Grupo 1126785" transform="translate(0 0)">
            <path id="Trazado_988290" data-name="Trazado 988290" d="M145.448,81.384a3.99,3.99,0,0,1-2.036-3.475v-1.4H140.34v1.4a3.99,3.99,0,0,0,2.036,3.475,3.376,3.376,0,0,1,1.72,2.941v18.763a3.376,3.376,0,0,1-3.371,3.371H143.8a3.376,3.376,0,0,0,3.371-3.371V84.325A3.376,3.376,0,0,0,145.448,81.384Z" transform="translate(-140.34 -76.51)" fill="#68a8bc"/>
          </g>
        </g>
        <g id="Grupo_1126788" data-name="Grupo 1126788" transform="translate(38.132 35.165)">
          <g id="Grupo_1126787" data-name="Grupo 1126787" transform="translate(0 0)">
            <path id="Trazado_988291" data-name="Trazado 988291" d="M143.849,54.25v2.605a1.34,1.34,0,0,1-1.339,1.339h3.072a1.34,1.34,0,0,0,1.339-1.339V54.25Z" transform="translate(-142.51 -54.25)" fill="#d34e5c"/>
          </g>
        </g>
      </g>
    </g>
  </g>
</svg>
