<svg xmlns="http://www.w3.org/2000/svg" width="73" height="63" viewBox="0 0 73 63">
  <g id="Grupo_1126973" data-name="Grupo 1126973" transform="translate(-822.051 -4637)">
    <rect id="Rectángulo_415805" data-name="Rectángulo 415805" width="73" height="63" rx="12" transform="translate(822.051 4637)" fill="#aab0fa"/>
    <g id="Grupo_1126797" data-name="Grupo 1126797">
      <rect id="Rectángulo_404781" data-name="Rectángulo 404781" width="57" height="57" transform="translate(830.051 4640)" fill="none"/>
      <g id="Grupo_1126796" data-name="Grupo 1126796" transform="translate(830.551 4640.5)">
        <g id="Grupo_1126793" data-name="Grupo 1126793" transform="translate(7.5 7.5)">
          <path id="Trazado_988292" data-name="Trazado 988292" d="M138.139,250.766l-2.32.812-2.32-.812v-4.227l2.34-1.623,2.3,1.623Z" transform="translate(-123.275 -225.649)" fill="#0caf7b"/>
          <path id="Trazado_988293" data-name="Trazado 988293" d="M124.668,322.072l-9.941,1.623-9.941-1.623a2.536,2.536,0,0,1-2.536-2.536h0A2.536,2.536,0,0,1,104.786,317h19.882a2.536,2.536,0,0,1,2.536,2.536h0A2.536,2.536,0,0,1,124.668,322.072Z" transform="translate(-94.561 -291.883)" fill="#70dcba"/>
          <path id="Trazado_988294" data-name="Trazado 988294" d="M84.459,384.572,70.623,386.2l-13.837-1.623a2.536,2.536,0,0,1-2.536-2.536h0a2.536,2.536,0,0,1,2.536-2.536H84.459A2.536,2.536,0,0,1,87,382.036h0A2.536,2.536,0,0,1,84.459,384.572Z" transform="translate(-50.456 -349.311)" fill="#30cd9c"/>
          <path id="Trazado_988295" data-name="Trazado 988295" d="M131.527,154.793a11.169,11.169,0,0,0-2.117,6.541v.059a.845.845,0,0,1-.845.846h-4.64a.846.846,0,0,1-.846-.846v-6.6l4.223-1.623Z" transform="translate(-113.7 -141.348)" fill="#3c4851"/>
          <path id="Trazado_988296" data-name="Trazado 988296" d="M45.3,447.072H10.036A2.536,2.536,0,0,1,7.5,444.536h0A2.536,2.536,0,0,1,10.036,442H45.3a2.536,2.536,0,0,1,2.536,2.536h0A2.536,2.536,0,0,1,45.3,447.072Z" transform="translate(-7.5 -406.739)" fill="#70dcba"/>
          <path id="Trazado_988297" data-name="Trazado 988297" d="M112.281,317a11.36,11.36,0,0,0-4.258,5.072q-.1.245-.2.5l-3.039-.5a2.536,2.536,0,1,1,0-5.072Z" transform="translate(-94.561 -291.883)" fill="#30cd9c"/>
          <path id="Trazado_988298" data-name="Trazado 988298" d="M63.721,380a11.292,11.292,0,0,0-.7,3.927q0,.326.019.649.021.374.066.741l-6.319-.741a2.536,2.536,0,1,1,0-5.072h7.132Q63.813,379.745,63.721,380Z" transform="translate(-50.456 -349.311)" fill="#0caf7b"/>
          <path id="Trazado_988299" data-name="Trazado 988299" d="M21.615,447.072H10.036a2.536,2.536,0,1,1,0-5.072H20.084q.021.374.066.741A11.249,11.249,0,0,0,21.615,447.072Z" transform="translate(-7.5 -406.739)" fill="#30cd9c"/>
          <path id="Trazado_988300" data-name="Trazado 988300" d="M131.527,154.793a11.133,11.133,0,0,0-1.334,2.435H123.08v-2.435l4.223-1.623Z" transform="translate(-113.7 -141.348)" fill="#313d44"/>
          <path id="Trazado_988301" data-name="Trazado 988301" d="M78.825,65.661H69.33a4.747,4.747,0,0,1-4.747-4.747h0a4.747,4.747,0,0,1,4.747-4.747h9.495l1.623,4.747Z" transform="translate(-59.951 -52.217)" fill="#495560"/>
          <path id="Trazado_988302" data-name="Trazado 988302" d="M241.638,49.6h2.435l1.623-6.3L244.073,37h-2.435a1.555,1.555,0,0,0-1.555,1.555v9.495A1.556,1.556,0,0,0,241.638,49.6Z" transform="translate(-221.208 -34.605)" fill="#3c4851"/>
          <path id="Trazado_988303" data-name="Trazado 988303" d="M292.861,7.5,289.25,9.894V22.5l3.611,2.394,1.623-8.7Z" transform="translate(-266.385 -7.5)" fill="#495560"/>
          <path id="Trazado_988304" data-name="Trazado 988304" d="M333.749,24.894h2.36a1.278,1.278,0,0,0,1.278-1.278V8.778A1.278,1.278,0,0,0,336.109,7.5h-2.36Z" transform="translate(-307.273 -7.5)" fill="#3c4851"/>
          <g id="Grupo_1126792" data-name="Grupo 1126792" transform="translate(9.923 7.356)">
            <g id="Grupo_1126791" data-name="Grupo 1126791" transform="translate(0)">
              <ellipse id="Elipse_12136" data-name="Elipse 12136" cx="2.382" cy="1.897" rx="2.382" ry="1.897" fill="#ff8e9e"/>
            </g>
          </g>
        </g>
        <g id="Grupo_1126795" data-name="Grupo 1126795" transform="translate(7.5 7.5)">
          <path id="Trazado_988305" data-name="Trazado 988305" d="M45.3,447.072H10.036A2.536,2.536,0,0,1,7.5,444.536h0A2.536,2.536,0,0,1,10.036,442H45.3a2.536,2.536,0,0,1,2.536,2.536h0A2.536,2.536,0,0,1,45.3,447.072Z" transform="translate(-7.5 -406.739)" fill="none" stroke="#000" stroke-linecap="round" stroke-linejoin="round" stroke-miterlimit="10" stroke-width="1"/>
          <path id="Trazado_988306" data-name="Trazado 988306" d="M84.459,384.572H56.786a2.536,2.536,0,0,1-2.536-2.536h0a2.536,2.536,0,0,1,2.536-2.536H84.459A2.536,2.536,0,0,1,87,382.036h0A2.536,2.536,0,0,1,84.459,384.572Z" transform="translate(-50.456 -349.311)" fill="none" stroke="#000" stroke-linecap="round" stroke-linejoin="round" stroke-miterlimit="10" stroke-width="1"/>
          <path id="Trazado_988307" data-name="Trazado 988307" d="M123.167,317h1.5a2.536,2.536,0,0,1,2.536,2.536h0a2.536,2.536,0,0,1-2.536,2.536H104.786a2.536,2.536,0,0,1-2.536-2.536h0A2.536,2.536,0,0,1,104.786,317h15.581" transform="translate(-94.561 -291.883)" fill="none" stroke="#000" stroke-linecap="round" stroke-linejoin="round" stroke-miterlimit="10" stroke-width="1"/>
          <rect id="Rectángulo_415836" data-name="Rectángulo 415836" width="4.639" height="4.227" transform="translate(10.225 20.89)" fill="none" stroke="#000" stroke-linecap="round" stroke-linejoin="round" stroke-miterlimit="10" stroke-width="1"/>
          <path id="Trazado_988308" data-name="Trazado 988308" d="M74.152,56.165h4.673V65.66H69.33a4.747,4.747,0,0,1-4.747-4.747h0a4.747,4.747,0,0,1,4.747-4.747h2.022" transform="translate(-59.951 -52.216)" fill="none" stroke="#000" stroke-linecap="round" stroke-linejoin="round" stroke-miterlimit="10" stroke-width="1"/>
          <path id="Trazado_988309" data-name="Trazado 988309" d="M241.638,49.6h2.435V37h-2.435a1.555,1.555,0,0,0-1.555,1.555v9.495A1.556,1.556,0,0,0,241.638,49.6Z" transform="translate(-221.208 -34.605)" fill="none" stroke="#000" stroke-linecap="round" stroke-linejoin="round" stroke-miterlimit="10" stroke-width="1"/>
          <path id="Trazado_988310" data-name="Trazado 988310" d="M131.53,173.165h0a11.166,11.166,0,0,0-2.117,6.541v.059a.845.845,0,0,1-.845.845h-4.639a.845.845,0,0,1-.845-.845v-6.6" transform="translate(-113.703 -159.721)" fill="none" stroke="#000" stroke-linecap="round" stroke-linejoin="round" stroke-miterlimit="10" stroke-width="1"/>
          <path id="Trazado_988311" data-name="Trazado 988311" d="M289.25,22.5l3.611,2.394V7.5L289.25,9.894" transform="translate(-266.385 -7.5)" fill="none" stroke="#000" stroke-linecap="round" stroke-linejoin="round" stroke-miterlimit="10" stroke-width="1"/>
          <path id="Trazado_988312" data-name="Trazado 988312" d="M337.387,20V8.778A1.278,1.278,0,0,0,336.109,7.5h-2.36V24.894h2.36a1.278,1.278,0,0,0,1.278-1.278V22.8" transform="translate(-307.273 -7.5)" fill="none" stroke="#000" stroke-linecap="round" stroke-linejoin="round" stroke-miterlimit="10" stroke-width="1"/>
          <g id="Grupo_1126794" data-name="Grupo 1126794" transform="translate(13.694 6.454)">
            <line id="Línea_587" data-name="Línea 587" y2="0.974" fill="none" stroke="#000" stroke-linecap="round" stroke-linejoin="round" stroke-miterlimit="10" stroke-width="1"/>
          </g>
          <line id="Línea_588" data-name="Línea 588" x2="2.861" transform="translate(32.887 16.116)" fill="none" stroke="#000" stroke-linecap="round" stroke-linejoin="round" stroke-miterlimit="10" stroke-width="1"/>
          <line id="Línea_589" data-name="Línea 589" x2="1.745" transform="translate(38.588 16.116)" fill="none" stroke="#000" stroke-linecap="round" stroke-linejoin="round" stroke-miterlimit="10" stroke-width="1"/>
          <line id="Línea_590" data-name="Línea 590" x2="2.861" transform="translate(32.887 1.278)" fill="none" stroke="#000" stroke-linecap="round" stroke-linejoin="round" stroke-miterlimit="10" stroke-width="1"/>
          <line id="Línea_591" data-name="Línea 591" x2="1.745" transform="translate(38.588 1.278)" fill="none" stroke="#000" stroke-linecap="round" stroke-linejoin="round" stroke-miterlimit="10" stroke-width="1"/>
          <line id="Línea_592" data-name="Línea 592" x2="2.861" transform="translate(32.887 8.697)" fill="none" stroke="#000" stroke-linecap="round" stroke-linejoin="round" stroke-miterlimit="10" stroke-width="1"/>
          <line id="Línea_593" data-name="Línea 593" x2="1.745" transform="translate(38.588 8.697)" fill="none" stroke="#000" stroke-linecap="round" stroke-linejoin="round" stroke-miterlimit="10" stroke-width="1"/>
          <line id="Línea_594" data-name="Línea 594" x2="1.745" transform="translate(33.445 4.91)" fill="none" stroke="#000" stroke-linecap="round" stroke-linejoin="round" stroke-miterlimit="10" stroke-width="1"/>
          <line id="Línea_595" data-name="Línea 595" x2="1.745" transform="translate(33.445 12.457)" fill="none" stroke="#000" stroke-linecap="round" stroke-linejoin="round" stroke-miterlimit="10" stroke-width="1"/>
          <line id="Línea_596" data-name="Línea 596" x2="1.177" transform="translate(39.156 12.457)" fill="none" stroke="#000" stroke-linecap="round" stroke-linejoin="round" stroke-miterlimit="10" stroke-width="1"/>
          <line id="Línea_597" data-name="Línea 597" x2="1.177" transform="translate(39.156 4.91)" fill="none" stroke="#000" stroke-linecap="round" stroke-linejoin="round" stroke-miterlimit="10" stroke-width="1"/>
        </g>
      </g>
    </g>
  </g>
</svg>
