<svg xmlns="http://www.w3.org/2000/svg" width="66.338" height="66.335" viewBox="0 0 66.338 66.335">
  <g id="Filled_outline" data-name="Filled outline" transform="translate(-15.971 -15.993)">
    <path id="Trazado_988202" data-name="Trazado 988202" d="M41.678,65.138V46.983a12.137,12.137,0,0,0,6.038-14.571L40.573,39.5a2.679,2.679,0,0,1-3.778-.011l-3.97-3.97a2.68,2.68,0,0,1-.011-3.779L39.9,24.595a12.121,12.121,0,0,0-5.253-.5,12.155,12.155,0,0,0-4.023,22.891V65.138a12.137,12.137,0,0,0-6.038,14.571l7.144-7.086a2.679,2.679,0,0,1,3.778.011l3.97,3.97a2.679,2.679,0,0,1,.011,3.778L32.4,87.527a12.121,12.121,0,0,0,5.253.5,12.155,12.155,0,0,0,4.023-22.891Z" transform="translate(-6.908 -6.899)" fill="#d6d6d4"/>
    <path id="Trazado_988203" data-name="Trazado 988203" d="M41.678,235.2V221.333L30.622,232.389V235.2a12.137,12.137,0,0,0-6.038,14.571l7.144-7.086a2.68,2.68,0,0,1,3.779.01l3.97,3.97a2.68,2.68,0,0,1,.01,3.779L32.4,257.59a12.121,12.121,0,0,0,5.253.5A12.155,12.155,0,0,0,41.678,235.2Z" transform="translate(-6.908 -176.963)" fill="#c7c7c5"/>
    <path id="Trazado_988204" data-name="Trazado 988204" d="M104,184h2.211v19.9H104Z" transform="translate(-75.863 -144.789)" fill="#b0b0ae"/>
    <path id="Trazado_988205" data-name="Trazado 988205" d="M226.011,248.322V238.6a6.633,6.633,0,0,0-5.7-6.567l-9.783-1.4V224H199.478v6.633l-10.234,2.193A6.633,6.633,0,0,0,184,239.312v9.01" transform="translate(-144.808 -179.261)" fill="#fec9a3"/>
    <path id="Trazado_988206" data-name="Trazado 988206" d="M296,224v3.85a9.945,9.945,0,0,0,11.056,0V224Z" transform="translate(-241.33 -179.261)" fill="#feb784"/>
    <path id="Trazado_988207" data-name="Trazado 988207" d="M220.316,273.4l-9.783-1.4-2.369,6.633h-6.317L199.478,272l-10.234,2.193A6.633,6.633,0,0,0,184,280.679v9.01h42.011v-9.725a6.633,6.633,0,0,0-5.7-6.567Z" transform="translate(-144.808 -220.628)" fill="#e0e0de"/>
    <path id="Trazado_988208" data-name="Trazado 988208" d="M226.011,279.964V291.9h-7.739v11.056H191.739v-9.95H184V280.679a6.633,6.633,0,0,1,5.243-6.485L199.478,272l5.528,15.478L210.533,272l9.783,1.4A6.636,6.636,0,0,1,226.011,279.964Z" transform="translate(-144.808 -220.628)" fill="#425b82"/>
    <path id="Trazado_988209" data-name="Trazado 988209" d="M274.272,299.725v11.936h-7.739v11.056H240V317.5c12.657-5.032,23.308-10.376,32.222-22.569A6.62,6.62,0,0,1,274.272,299.725Z" transform="translate(-193.069 -240.389)" fill="#3c5174"/>
    <g id="Grupo_1126713" data-name="Grupo 1126713" transform="translate(45.826 62.428)">
      <path id="Trazado_988210" data-name="Trazado 988210" d="M328,384h2.211v15.478H328Z" transform="translate(-314.733 -379.578)" fill="#334562"/>
      <path id="Trazado_988211" data-name="Trazado 988211" d="M360,376h9.95v2.211H360Z" transform="translate(-342.311 -372.683)" fill="#334562"/>
      <path id="Trazado_988212" data-name="Trazado 988212" d="M296,368h2.211v2.211H296Z" transform="translate(-287.155 -365.789)" fill="#334562"/>
      <path id="Trazado_988213" data-name="Trazado 988213" d="M424,352h2.211v17.689H424Z" transform="translate(-397.467 -352)" fill="#334562"/>
      <path id="Trazado_988214" data-name="Trazado 988214" d="M232,352h2.211v17.689H232Z" transform="translate(-232 -352)" fill="#334562"/>
    </g>
    <path id="Trazado_988215" data-name="Trazado 988215" d="M265.871,266l.847,10.163,6.034-3.448L270.035,264Z" transform="translate(-215.365 -213.733)" fill="#49648e"/>
    <path id="Trazado_988216" data-name="Trazado 988216" d="M356.339,272.713l6.034,3.448.871-10.457-4.188-1.7Z" transform="translate(-293.33 -213.733)" fill="#49648e"/>
    <path id="Trazado_988217" data-name="Trazado 988217" d="M188.422,398.372h3.317l21.006-4.422h5.528l2.211-2.211h5.528V384h-5.528l-7.739,3.317L184,389.528v4.422A4.422,4.422,0,0,0,188.422,398.372Z" transform="translate(-144.808 -317.15)" fill="#feb784"/>
    <path id="Trazado_988218" data-name="Trazado 988218" d="M221.589,398.372h-3.317l-21.006-4.422h-5.528l-2.211-2.211H184V384h5.528l7.739,3.317,28.745,2.211v4.422A4.422,4.422,0,0,1,221.589,398.372Z" transform="translate(-144.808 -317.15)" fill="#fec9a3"/>
    <path id="Trazado_988219" data-name="Trazado 988219" d="M409.106,128H408v6.633h1.106a3.317,3.317,0,1,0,0-6.633Z" transform="translate(-337.852 -96.528)" fill="#feb784"/>
    <path id="Trazado_988220" data-name="Trazado 988220" d="M235.372,128h-.055a3.317,3.317,0,1,0,0,6.633h1.106V128Z" transform="translate(-186.174 -96.528)" fill="#feb784"/>
    <path id="Trazado_988221" data-name="Trazado 988221" d="M283.9,57.95v7.739a9.951,9.951,0,0,1-9.949,9.95,10.216,10.216,0,0,1-1.035-.053,9.954,9.954,0,0,1-8.916-9.9V57.95A9.951,9.951,0,0,1,273.949,48q.416,0,.822.033h0A9.95,9.95,0,0,1,283.9,57.95Z" transform="translate(-213.752 -27.583)" fill="#fec9a3"/>
    <path id="Trazado_988222" data-name="Trazado 988222" d="M339.5,58.166V65.9a9.951,9.951,0,0,1-9.949,9.95,10.215,10.215,0,0,1-1.035-.053,12.16,12.16,0,0,0,6.976-11V58.166a12.175,12.175,0,0,0-5.12-9.916A9.95,9.95,0,0,1,339.5,58.166Z" transform="translate(-269.354 -27.799)" fill="#fec093"/>
    <path id="Trazado_988223" data-name="Trazado 988223" d="M269.224,53.688a24.1,24.1,0,0,0,9.453,0l.8-.16,4.422,5.159V57.95a9.95,9.95,0,1,0-19.9,0v.737l4.422-5.159Z" transform="translate(-213.752 -27.583)" fill="#7a432a"/>
    <path id="Trazado_988224" data-name="Trazado 988224" d="M314.341,182.579H312v-2.211h2.341a13.692,13.692,0,0,0,3.972-.582l.641,2.116A15.9,15.9,0,0,1,314.341,182.579Z" transform="translate(-255.119 -141.156)" fill="#f7a468"/>
    <circle id="Elipse_12125" data-name="Elipse 12125" cx="1.658" cy="1.658" r="1.658" transform="translate(63.514 32.578)" fill="#7a432a"/>
    <circle id="Elipse_12126" data-name="Elipse 12126" cx="1.658" cy="1.658" r="1.658" transform="translate(53.564 32.577)" fill="#7a432a"/>
    <path id="Trazado_988225" data-name="Trazado 988225" d="M276.862,105.252a3.357,3.357,0,0,1-3.907,3.3l-3.032-.506a26.578,26.578,0,0,0-8.723,0l-3.032.506A3.351,3.351,0,0,1,254.506,104h22.111A3.366,3.366,0,0,1,276.862,105.252Z" transform="translate(-205.364 -75.844)" fill="#49648e"/>
    <path id="Trazado_988226" data-name="Trazado 988226" d="M278.111,30.633v4.422H256V30.633A6.633,6.633,0,0,1,262.633,24h8.844a6.631,6.631,0,0,1,2.1.34c.123.041.245.086.363.134A6.631,6.631,0,0,1,278.111,30.633Z" transform="translate(-206.858 -6.9)" fill="#425b82"/>
    <path id="Trazado_988227" data-name="Trazado 988227" d="M298.795,33.589v4.422H280A29.368,29.368,0,0,0,294.622,27.43,6.631,6.631,0,0,1,298.795,33.589Z" transform="translate(-227.541 -9.856)" fill="#3c5174"/>
    <path id="Trazado_988228" data-name="Trazado 988228" d="M304,72h8.845v4.422H304Z" transform="translate(-248.224 -48.267)" fill="#e0e0de"/>
    <path id="Trazado_988229" data-name="Trazado 988229" d="M304,88h8.845v2.211H304Z" transform="translate(-248.224 -62.056)" fill="#d6d6d4"/>
    <path id="Trazado_988230" data-name="Trazado 988230" d="M356.815,105.252a3.357,3.357,0,0,1-3.907,3.3l-3.032-.506a26.442,26.442,0,0,0-2.836-.316A15.867,15.867,0,0,0,352.68,104h3.89A3.366,3.366,0,0,1,356.815,105.252Z" transform="translate(-285.317 -75.844)" fill="#425b82"/>
    <path id="Trazado_988231" data-name="Trazado 988231" d="M75.666,51.671,70.2,50.893l-3.367-1.37V46.944A10.988,10.988,0,0,0,71.2,39.211h.055a4.422,4.422,0,0,0,1.2-8.677,4.4,4.4,0,0,0-.1-2.572v-4.23a7.739,7.739,0,0,0-7.739-7.739H55.776a7.739,7.739,0,0,0-7.739,7.739v4.23a4.4,4.4,0,0,0-.1,2.572,4.422,4.422,0,0,0,1.2,8.677H49.2a10.988,10.988,0,0,0,4.367,7.734V49.57l-3.427,1.645L44.2,52.481a7.8,7.8,0,0,0-6.065,6.752,13.381,13.381,0,0,0-2.256-1.651V40.742a13.233,13.233,0,0,0,5.981-15.572,1.106,1.106,0,0,0-1.829-.441l-7.136,7.081a1.6,1.6,0,0,1-1.128.459,1.567,1.567,0,0,1-1.1-.461L26.7,27.838a1.567,1.567,0,0,1-.461-1.1,1.6,1.6,0,0,1,.453-1.123l7.087-7.142a1.106,1.106,0,0,0-.442-1.83A13.259,13.259,0,0,0,22.609,40.741v16.84a13.233,13.233,0,0,0-5.982,15.572,1.106,1.106,0,0,0,1.829.441l7.136-7.081a1.6,1.6,0,0,1,1.128-.459,1.567,1.567,0,0,1,1.1.461l3.969,3.969a1.567,1.567,0,0,1,.461,1.1A1.6,1.6,0,0,1,31.8,72.7l-7.087,7.142a1.106,1.106,0,0,0,.442,1.83A13.383,13.383,0,0,0,38.4,78.621a5.536,5.536,0,0,0,5.218,3.707h3.317c.077,0,12.161-2.542,12.161-2.542v2.542H61.3V79.792L73.237,82.3a1.115,1.115,0,0,0,.228.024h3.317A5.534,5.534,0,0,0,82.309,76.8V59.332a7.792,7.792,0,0,0-6.643-7.662ZM60.2,63.559l-1.592-4.448h3.178ZM55.776,48.233a11,11,0,0,0,8.844,0V50.1L62.5,56.9H57.9l-2.122-6.8Zm8.582,10.135,2.066-6.624,2.322.944-.66,7.919-3.721-2.126.035-.1Zm.384-27.26a27.581,27.581,0,0,0-9.088,0l-3.032.505a2.249,2.249,0,0,1-2.613-2.353H70.386a2.249,2.249,0,0,1-2.613,2.353ZM63.514,27.05H56.881V24.839h6.633Zm9.95,7.739A2.216,2.216,0,0,1,71.253,37V32.592l.014-.013a2.213,2.213,0,0,1,2.2,2.21ZM50.248,23.733a5.528,5.528,0,0,1,5.528-5.528H64.62a5.528,5.528,0,0,1,5.528,5.528V27.05H65.726V23.733a1.106,1.106,0,0,0-1.106-1.106H55.776a1.106,1.106,0,0,0-1.106,1.106V27.05H50.248ZM47.581,36.351a2.209,2.209,0,0,1,1.551-3.773l.011.011V37a2.226,2.226,0,0,1-1.562-.65Zm3.773,1.755V33.769a4.5,4.5,0,0,0,1.632.027l.676-.113a1.658,1.658,0,1,0,2.862-.472,25.362,25.362,0,0,1,7.348,0,1.659,1.659,0,1,0,2.862.472l.676.113a5.673,5.673,0,0,0,1.632-.026v4.336a8.844,8.844,0,1,1-17.689,0ZM54,51.817l2.041,6.546L56,58.378l.038.1-3.722,2.126-.64-7.676Zm-9.332,2.826,4.846-1.033.743,8.91a1.106,1.106,0,0,0,.587.887,2.109,2.109,0,0,0,1.063-.019l4.89-2.794,2.3,6.448v2.527l-6.366-.49-4.69-2.01V62.428H45.826v3.693l-.67-.287a1.105,1.105,0,0,0-.435-.089H40.3V60.051A5.571,5.571,0,0,1,44.663,54.643ZM30.614,80.036A11.175,11.175,0,0,1,27.668,80l5.7-5.747a3.8,3.8,0,0,0,1.089-2.675,3.743,3.743,0,0,0-1.109-2.661l-3.969-3.969a3.742,3.742,0,0,0-2.661-1.109,3.808,3.808,0,0,0-2.681,1.095l-5.741,5.7a11.036,11.036,0,0,1,5.918-11.413,1.106,1.106,0,0,0,.6-.984V40.085a1.106,1.106,0,0,0-.6-.984,11.048,11.048,0,0,1,6.6-20.782l-5.7,5.747a3.8,3.8,0,0,0-1.089,2.675A3.743,3.743,0,0,0,25.133,29.4L29.1,33.371a3.742,3.742,0,0,0,2.661,1.109,3.808,3.808,0,0,0,2.68-1.095l5.741-5.7A11.036,11.036,0,0,1,34.267,39.1a1.106,1.106,0,0,0-.6.984V58.238a1.106,1.106,0,0,0,.6.984,11.194,11.194,0,0,1,3.821,3.223V75.639a11.088,11.088,0,0,1-7.472,4.4Zm16.2.081h-3.2A3.32,3.32,0,0,1,40.3,76.8V75.695h3.964l1.887,1.887a1.106,1.106,0,0,0,.782.324h5.413l2.478.522ZM80.1,76.8a3.32,3.32,0,0,1-3.317,3.317h-3.2l-20.893-4.4c-.075-.016-5.3-.024-5.3-.024L45.5,73.807a1.105,1.105,0,0,0-.782-.324H40.3V67.956h4.2s7.76,3.3,7.881,3.314L80.1,73.4Zm0-5.616-9.941-.765L75.9,67.956H80.1Zm0-5.439H75.676a9.3,9.3,0,0,0-1.106.378V62.428H72.359v3.317H63.514v2.211h6.779l-2.624,1.123L61.3,69.57V67.041l2.3-6.448,4.89,2.794a1.106,1.106,0,0,0,1.65-.868l.774-9.291,4.432.631A5.568,5.568,0,0,1,80.1,59.332Z" transform="translate(0 0)"/>
    <path id="Trazado_988232" data-name="Trazado 988232" d="M296,368h2.211v2.211H296Z" transform="translate(-241.33 -303.361)"/>
    <path id="Trazado_988233" data-name="Trazado 988233" d="M318.954,181.9l-.641-2.116a13.69,13.69,0,0,1-3.973.582H312v2.211h2.34A15.9,15.9,0,0,0,318.954,181.9Z" transform="translate(-255.119 -141.158)"/>
    <path id="Trazado_988234" data-name="Trazado 988234" d="M104,184h2.211v19.9H104Z" transform="translate(-75.863 -144.789)"/>
  </g>
</svg>
