<svg xmlns="http://www.w3.org/2000/svg" width="73" height="63" viewBox="0 0 73 63">
  <g id="Grupo_1126974" data-name="Grupo 1126974" transform="translate(-822.051 -4732.999)">
    <rect id="Rect치ngulo_415807" data-name="Rect치ngulo 415807" width="73" height="63" rx="12" transform="translate(822.051 4732.999)" fill="#aab0fa"/>
    <g id="Grupo_1126915" data-name="Grupo 1126915">
      <rect id="Rect치ngulo_404781" data-name="Rect치ngulo 404781" width="57" height="57" transform="translate(830.051 4736)" fill="none"/>
      <g id="Grupo_1126914" data-name="Grupo 1126914" transform="translate(835.079 4740.662)">
        <g id="Grupo_1126798" data-name="Grupo 1126798" transform="translate(12.957 7.146)">
          <path id="Trazado_988313" data-name="Trazado 988313" d="M20.33,14.552l3.77,3.777,2.978-7.021-.539-.588Z" transform="translate(-20.33 -10.72)" fill="#c0c8ce"/>
        </g>
        <g id="Grupo_1126799" data-name="Grupo 1126799" transform="translate(12.758 6.838)">
          <path id="Trazado_988314" data-name="Trazado 988314" d="M23.978,18.449a.33.33,0,0,1-.21-.08l-3.659-3.356a.31.31,0,0,1-.1-.248.325.325,0,0,1,.13-.235l6.1-4.253a.311.311,0,0,1,.4.043l.539.588a.3.3,0,0,1,.056.328l-2.978,7.021a.3.3,0,0,1-.217.18A.112.112,0,0,1,23.978,18.449Zm-3.17-3.634,3.052,2.8,2.73-6.432-.223-.241Z" transform="translate(-20.009 -10.222)"/>
        </g>
        <g id="Grupo_1126800" data-name="Grupo 1126800" transform="translate(25.095 16.735)">
          <path id="Trazado_988315" data-name="Trazado 988315" d="M0,0H2.52V8.061H0Z" transform="translate(0 2.064) rotate(-54.975)" fill="#283a49"/>
        </g>
        <g id="Grupo_1126801" data-name="Grupo 1126801" transform="translate(25.085 16.73)" opacity="0.3">
          <path id="Trazado_988316" data-name="Trazado 988316" d="M46.978,32.249l-.452.644L39.92,28.268,41.369,26.2l.687.483a1.728,1.728,0,0,0,.427,2.408Z" transform="translate(-39.92 -26.2)"/>
        </g>
        <g id="Grupo_1126802" data-name="Grupo 1126802" transform="translate(24.779 16.423)">
          <path id="Trazado_988317" data-name="Trazado 988317" d="M46.338,33.013a.323.323,0,0,1-.18-.056l-6.6-4.625a.309.309,0,0,1-.074-.433l1.449-2.062a.3.3,0,0,1,.427-.08l6.6,4.625a.309.309,0,0,1,.074.433l-1.443,2.068A.306.306,0,0,1,46.338,33.013ZM40.166,28l6.092,4.272,1.09-1.56-6.092-4.272Z" transform="translate(-39.427 -25.704)"/>
        </g>
        <g id="Grupo_1126808" data-name="Grupo 1126808" transform="translate(25.002 14.877)">
          <g id="Grupo_1126803" data-name="Grupo 1126803" transform="translate(2.849 0.31)">
            <path id="Trazado_988318" data-name="Trazado 988318" d="M0,0H1.839V6.1H0Z" transform="translate(0 1.506) rotate(-54.975)" fill="#f22020"/>
          </g>
          <g id="Grupo_1126804" data-name="Grupo 1126804" transform="translate(2.53)">
            <path id="Trazado_988319" data-name="Trazado 988319" d="M49.19,28.836a.323.323,0,0,1-.18-.056l-5-3.5a.3.3,0,0,1-.08-.427l1.059-1.511a.309.309,0,0,1,.433-.074l5,3.5a.309.309,0,0,1,.074.433l-1.059,1.511a.331.331,0,0,1-.2.13A.121.121,0,0,0,49.19,28.836Zm-4.569-3.888L49.115,28.1l.7-1L45.32,23.946Z" transform="translate(-43.874 -23.207)"/>
          </g>
          <g id="Grupo_1126805" data-name="Grupo 1126805" transform="translate(0.315 0.461)">
            <path id="Trazado_988320" data-name="Trazado 988320" d="M0,0H1.987V9.559H0Z" transform="translate(0 1.628) rotate(-54.975)" fill="#f33"/>
          </g>
          <g id="Grupo_1126806" data-name="Grupo 1126806" transform="translate(0.312 0.466)" opacity="0.3">
            <path id="Trazado_988321" data-name="Trazado 988321" d="M48.586,30.4l-.471.669L40.29,25.582l1.133-1.622.96.669a1.163,1.163,0,0,0,.285,1.622Z" transform="translate(-40.29 -23.96)"/>
          </g>
          <g id="Grupo_1126807" data-name="Grupo 1126807" transform="translate(0 0.147)">
            <path id="Trazado_988322" data-name="Trazado 988322" d="M47.924,31.18a.323.323,0,0,1-.18-.056l-7.825-5.485a.309.309,0,0,1-.074-.433l1.139-1.628a.3.3,0,0,1,.427-.08l7.832,5.485a.3.3,0,0,1,.08.427l-1.139,1.622a.292.292,0,0,1-.26.149Zm-7.392-5.869,7.324,5.132.786-1.121-7.324-5.132Z" transform="translate(-39.787 -23.444)"/>
          </g>
        </g>
        <g id="Grupo_1126809" data-name="Grupo 1126809" transform="translate(1.291 27.391)">
          <path id="Trazado_988323" data-name="Trazado 988323" d="M7.061,56.248a1.826,1.826,0,0,1-1.752-1.294L3.3,48.466a1.831,1.831,0,0,1,.65-2.006l1.925-1.449a.544.544,0,0,1-.037-.062,8.748,8.748,0,0,1-.749-1.529L2.913,45.061a3.593,3.593,0,0,0-1.269,3.913L3.65,55.461a3.561,3.561,0,0,0,3.417,2.52h3.157V56.235H7.061Z" transform="translate(-1.488 -43.42)" fill="#d3dae0"/>
        </g>
        <g id="Grupo_1126810" data-name="Grupo 1126810" transform="translate(1.279 27.397)" opacity="0.3">
          <path id="Trazado_988324" data-name="Trazado 988324" d="M7.976,58H7.047a3.561,3.561,0,0,1-3.417-2.52L1.624,48.983a3.593,3.593,0,0,1,1.269-3.913L5.078,43.43a5.641,5.641,0,0,0,.217.532L3.822,45.071a3.593,3.593,0,0,0-1.269,3.913l2.006,6.494A3.561,3.561,0,0,0,7.976,58Z" transform="translate(-1.468 -43.43)"/>
        </g>
        <g id="Grupo_1126811" data-name="Grupo 1126811" transform="translate(27.283 27.391)">
          <path id="Trazado_988325" data-name="Trazado 988325" d="M49.89,45.067,47.7,43.42c-.037.161-.062.328-.087.489,0,.019-.006.043-.006.062-.006.05-.012.093-.019.142-.012.093-.019.186-.031.285-.037.334-.062.675-.105,1.015l1.387,1.04a1.831,1.831,0,0,1,.65,2.006l-2.006,6.488a1.826,1.826,0,0,1-1.752,1.294H43.47v1.746h2.266a3.561,3.561,0,0,0,3.417-2.52l2.006-6.488a3.593,3.593,0,0,0-1.269-3.913Z" transform="translate(-43.47 -43.42)" fill="#d3dae0"/>
        </g>
        <g id="Grupo_1126812" data-name="Grupo 1126812" transform="translate(27.276 40.219)" opacity="0.3">
          <path id="Trazado_988326" data-name="Trazado 988326" d="M46.586,65.316a3.576,3.576,0,0,0,1.535-.347,3.572,3.572,0,0,1-2.4.916H43.46V64.14h.861A1.176,1.176,0,0,0,45.5,65.316Z" transform="translate(-43.46 -64.14)"/>
        </g>
        <g id="Grupo_1126813" data-name="Grupo 1126813" transform="translate(30.929 27.391)" opacity="0.3">
          <path id="Trazado_988327" data-name="Trazado 988327" d="M52.592,47.9,50.586,54.39A1.788,1.788,0,0,1,49.36,55.6a1.686,1.686,0,0,0,.365-.65l2.006-6.488a1.841,1.841,0,0,0-.65-2.006l-1.387-1.04c.037-.341.21-1.833.248-2l.706.532v.006a1.594,1.594,0,0,0,.631,1.43l.669.5a1.844,1.844,0,0,1,.644,2.012Z" transform="translate(-49.36 -43.42)"/>
        </g>
        <g id="Grupo_1126814" data-name="Grupo 1126814" transform="translate(0.972 27.168)">
          <path id="Trazado_988328" data-name="Trazado 988328" d="M10.016,58.265H6.858a3.873,3.873,0,0,1-3.715-2.736l-2-6.494a3.9,3.9,0,0,1,1.381-4.253l2.21-1.659a.308.308,0,0,1,.272-.05.315.315,0,0,1,.2.192,8.577,8.577,0,0,0,.693,1.4l.08.124a.309.309,0,0,1-.08.409l-1.969,1.48A1.515,1.515,0,0,0,3.4,48.341L5.4,54.829a1.519,1.519,0,0,0,1.455,1.077h3.157a.307.307,0,0,1,.31.31v1.746A.309.309,0,0,1,10.016,58.265ZM4.784,43.853,2.9,45.27a3.274,3.274,0,0,0-1.158,3.578l2,6.494a3.254,3.254,0,0,0,3.12,2.3H9.706V56.52H6.858a2.132,2.132,0,0,1-2.049-1.511l-2-6.488a2.143,2.143,0,0,1,.761-2.346l1.74-1.306A10.042,10.042,0,0,1,4.784,43.853Z" transform="translate(-0.972 -43.061)"/>
        </g>
        <g id="Grupo_1126815" data-name="Grupo 1126815" transform="translate(26.967 27.087)">
          <path id="Trazado_988329" data-name="Trazado 988329" d="M45.535,58.116H43.27a.307.307,0,0,1-.31-.31V56.061a.307.307,0,0,1,.31-.31h2.266a1.514,1.514,0,0,0,1.455-1.077L49,48.186a1.535,1.535,0,0,0-.539-1.665l-1.387-1.046a.318.318,0,0,1-.124-.285c.025-.223.05-.452.068-.675l.08-.768.006-.062c.025-.173.056-.347.093-.514a.305.305,0,0,1,.192-.223.32.32,0,0,1,.3.043l2.185,1.647a3.909,3.909,0,0,1,1.381,4.253L49.244,55.38a3.849,3.849,0,0,1-3.708,2.736Zm-1.95-.619h1.956a3.241,3.241,0,0,0,3.12-2.3l2.006-6.488a3.291,3.291,0,0,0-1.158-3.578l-1.783-1.343-.087.792c-.019.167-.031.341-.05.514l1.244.935a2.153,2.153,0,0,1,.761,2.346L47.585,54.86a2.132,2.132,0,0,1-2.049,1.511H43.579V57.5Z" transform="translate(-42.96 -42.929)"/>
        </g>
        <g id="Grupo_1126817" data-name="Grupo 1126817" transform="translate(3.921 18.135)">
          <g id="Grupo_1126816" data-name="Grupo 1126816">
            <path id="Trazado_988330" data-name="Trazado 988330" d="M34.254,35.218,28.812,54.627a1.213,1.213,0,0,1-1.17.885H12.393a1.22,1.22,0,0,1-1.17-.885L5.781,35.218a1.209,1.209,0,0,1,.477-1.325l7.454-5.207a1.21,1.21,0,0,1,.693-.217H25.63a1.21,1.21,0,0,1,.693.217l7.454,5.207a1.215,1.215,0,0,1,.477,1.325Z" transform="translate(-5.735 -28.47)" fill="#34495e"/>
          </g>
        </g>
        <g id="Grupo_1126819" data-name="Grupo 1126819" transform="translate(3.921 23.039)" opacity="0.3">
          <g id="Grupo_1126818" data-name="Grupo 1126818">
            <path id="Trazado_988331" data-name="Trazado 988331" d="M28.868,57.439l-.056.2a1.213,1.213,0,0,1-1.17.892H12.393a1.226,1.226,0,0,1-1.176-.892L5.781,38.235a1.206,1.206,0,0,1,.477-1.325l.749-.52a1.167,1.167,0,0,0-.043.755L9.973,47.435a13.793,13.793,0,0,0,13.02,9.918l5.832.093A.105.105,0,0,0,28.868,57.439Z" transform="translate(-5.735 -36.39)"/>
          </g>
        </g>
        <g id="Grupo_1126823" data-name="Grupo 1126823" transform="translate(9.038 22.68)">
          <g id="Grupo_1126820" data-name="Grupo 1126820" transform="translate(0.316 0.316)">
            <path id="Trazado_988332" data-name="Trazado 988332" d="M18.5,53.642,14.51,39.385l4.383-3.065h8.934l4.389,3.065-4,14.258Z" transform="translate(-14.51 -36.32)" fill="#283a49"/>
          </g>
          <g id="Grupo_1126821" data-name="Grupo 1126821" transform="translate(3.628 0.316)" opacity="0.3">
            <path id="Trazado_988333" data-name="Trazado 988333" d="M29.858,36.32H20.931l-1.071.749a.32.32,0,0,1,.037.08l.006-.006H27.19a5.229,5.229,0,0,1,5.033,6.637l-2.767,9.862h.8l3.993-14.258Z" transform="translate(-19.86 -36.32)"/>
          </g>
          <g id="Grupo_1126822" data-name="Grupo 1126822">
            <path id="Trazado_988334" data-name="Trazado 988334" d="M28.023,53.758H18.3a.31.31,0,0,1-.3-.229L14.012,39.271a.306.306,0,0,1,.118-.334l4.389-3.071a.3.3,0,0,1,.18-.056h8.927a.323.323,0,0,1,.18.056L32.2,38.936a.306.306,0,0,1,.118.334L28.32,53.529A.3.3,0,0,1,28.023,53.758Zm-9.478-.619h9.249L31.663,39.32l-4.129-2.885H18.8L14.669,39.32Z" transform="translate(-14 -35.81)"/>
          </g>
        </g>
        <g id="Grupo_1126824" data-name="Grupo 1126824" transform="translate(3.614 17.826)">
          <path id="Trazado_988335" data-name="Trazado 988335" d="M27.453,55.638H12.2a1.525,1.525,0,0,1-1.467-1.114L5.3,35.108a1.518,1.518,0,0,1,.594-1.659l7.454-5.207a1.518,1.518,0,0,1,.873-.272H25.441a1.5,1.5,0,0,1,.873.272l7.454,5.207a1.525,1.525,0,0,1,.594,1.659L28.92,54.517a1.523,1.523,0,0,1-1.467,1.121ZM14.217,28.583a.921.921,0,0,0-.52.161L6.249,33.957a.909.909,0,0,0-.353.991l5.442,19.409a.914.914,0,0,0,.873.662H27.459a.914.914,0,0,0,.873-.662l5.442-19.409a.909.909,0,0,0-.353-.991L25.967,28.75a.921.921,0,0,0-.52-.161H14.217Z" transform="translate(-5.239 -27.97)"/>
        </g>
        <g id="Grupo_1126854" data-name="Grupo 1126854" transform="translate(7.868 20.841)">
          <g id="Grupo_1126833" data-name="Grupo 1126833" transform="translate(1.642 1.184)">
            <g id="Grupo_1126828" data-name="Grupo 1126828" transform="translate(0.294 0.321)">
              <g id="Grupo_1126825" data-name="Grupo 1126825" transform="translate(0 11.1)">
                <path id="Trazado_988336" data-name="Trazado 988336" d="M0,0H1.678V13.992H0Z" transform="matrix(0.379, -0.925, 0.925, 0.379, 0, 1.552)" fill="#ededed"/>
              </g>
              <g id="Grupo_1126826" data-name="Grupo 1126826" transform="translate(1.021 0)">
                <path id="Trazado_988337" data-name="Trazado 988337" d="M0,0H10.871V1.678H0Z" transform="translate(0 6.936) rotate(-39.644)" fill="#ededed"/>
              </g>
              <g id="Grupo_1126827" data-name="Grupo 1126827" transform="translate(12.613 1.288)">
                <path id="Trazado_988338" data-name="Trazado 988338" d="M0,0H1.678V12.673H0Z" transform="translate(0 0.238) rotate(-8.163)" fill="#ededed"/>
              </g>
            </g>
            <g id="Grupo_1126832" data-name="Grupo 1126832">
              <g id="Grupo_1126829" data-name="Grupo 1126829" transform="translate(0 11.098)">
                <path id="Trazado_988339" data-name="Trazado 988339" d="M28.016,60.152a.268.268,0,0,1-.118-.025l-12.945-5.3a.315.315,0,0,1-.167-.167.31.31,0,0,1,0-.235l.638-1.554a.3.3,0,0,1,.4-.167L28.771,58a.315.315,0,0,1,.167.167.31.31,0,0,1,0,.235L28.3,59.96a.306.306,0,0,1-.285.192ZM15.473,54.376,27.849,59.44l.4-.984L15.875,53.392Z" transform="translate(-14.762 -52.679)"/>
              </g>
              <g id="Grupo_1126830" data-name="Grupo 1126830" transform="translate(1.011)">
                <path id="Trazado_988340" data-name="Trazado 988340" d="M17.779,43.61a.317.317,0,0,1-.241-.111L16.466,42.2a.3.3,0,0,1-.068-.229.322.322,0,0,1,.111-.21l8.37-6.94a.3.3,0,0,1,.433.043l1.071,1.294a.3.3,0,0,1,.068.229.322.322,0,0,1-.111.21l-8.364,6.934a.316.316,0,0,1-.2.074Zm-.638-1.566.675.817,7.894-6.544-.675-.817Z" transform="translate(-16.396 -34.753)"/>
              </g>
              <g id="Grupo_1126831" data-name="Grupo 1126831" transform="translate(12.606 1.283)">
                <path id="Trazado_988341" data-name="Trazado 988341" d="M37.239,50.231a.307.307,0,0,1-.3-.266L35.128,37.422a.335.335,0,0,1,.056-.229.311.311,0,0,1,.2-.124l1.665-.241a.309.309,0,0,1,.353.26l1.808,12.543a.335.335,0,0,1-.056.229.311.311,0,0,1-.2.124l-1.665.241a.174.174,0,0,1-.05.006ZM35.784,37.639,37.5,49.569l1.052-.149L36.831,37.49Z" transform="translate(-35.125 -36.825)"/>
              </g>
            </g>
          </g>
          <g id="Grupo_1126839" data-name="Grupo 1126839" transform="translate(10.958 12.141)">
            <g id="Grupo_1126834" data-name="Grupo 1126834" transform="translate(0.31 0.31)">
              <path id="Trazado_988342" data-name="Trazado 988342" d="M37.683,56.646a3.687,3.687,0,1,1-3.7-3.7A3.694,3.694,0,0,1,37.683,56.646Z" transform="translate(-30.31 -52.95)" fill="#d3dae0"/>
            </g>
            <g id="Grupo_1126835" data-name="Grupo 1126835">
              <path id="Trazado_988343" data-name="Trazado 988343" d="M33.8,60.461A4.006,4.006,0,1,1,37.8,56.456,4,4,0,0,1,33.8,60.461Zm0-7.386a3.386,3.386,0,1,0,3.386,3.386A3.379,3.379,0,0,0,33.8,53.075Z" transform="translate(-29.81 -52.45)"/>
            </g>
            <g id="Grupo_1126838" data-name="Grupo 1126838" transform="translate(1.566 1.579)">
              <g id="Grupo_1126836" data-name="Grupo 1126836" transform="translate(0.31 0.303)">
                <path id="Trazado_988344" data-name="Trazado 988344" d="M37.081,57.614a2.12,2.12,0,1,1-2.124-2.124,2.123,2.123,0,0,1,2.124,2.124Z" transform="translate(-32.84 -55.49)" fill="#bec6cc"/>
              </g>
              <g id="Grupo_1126837" data-name="Grupo 1126837">
                <path id="Trazado_988345" data-name="Trazado 988345" d="M34.767,59.866A2.433,2.433,0,1,1,37.2,57.433a2.432,2.432,0,0,1-2.433,2.433Zm0-4.253a1.814,1.814,0,1,0,1.814,1.814,1.815,1.815,0,0,0-1.814-1.814Z" transform="translate(-32.34 -55)"/>
              </g>
            </g>
          </g>
          <g id="Grupo_1126847" data-name="Grupo 1126847" transform="translate(0 6.822)">
            <g id="Grupo_1126840" data-name="Grupo 1126840" transform="translate(0.31 0.31)">
              <path id="Trazado_988346" data-name="Trazado 988346" d="M21.606,48.867A4.5,4.5,0,1,1,17.1,44.36,4.508,4.508,0,0,1,21.606,48.867Z" transform="translate(-12.61 -44.36)" fill="#d3dae0"/>
            </g>
            <g id="Grupo_1126841" data-name="Grupo 1126841">
              <path id="Trazado_988347" data-name="Trazado 988347" d="M16.908,53.493a4.817,4.817,0,1,1,4.817-4.817A4.814,4.814,0,0,1,16.908,53.493Zm0-9.014a4.2,4.2,0,1,0,4.2,4.2A4.193,4.193,0,0,0,16.908,44.479Z" transform="translate(-12.11 -43.86)"/>
            </g>
            <g id="Grupo_1126846" data-name="Grupo 1126846" transform="translate(1.913 1.913)">
              <g id="Grupo_1126842" data-name="Grupo 1126842" transform="translate(0.31 0.31)">
                <path id="Trazado_988348" data-name="Trazado 988348" d="M20.876,50.044a2.588,2.588,0,1,1-2.594-2.594A2.589,2.589,0,0,1,20.876,50.044Z" transform="translate(-15.7 -47.45)" fill="#bec6cc"/>
              </g>
              <g id="Grupo_1126843" data-name="Grupo 1126843" transform="translate(0.526 0.31)" opacity="0.3">
                <path id="Trazado_988349" data-name="Trazado 988349" d="M20.056,52.05a2.589,2.589,0,0,0-4.006-3.058,2.591,2.591,0,1,1,4.006,3.058Z" transform="translate(-16.05 -47.45)"/>
              </g>
              <g id="Grupo_1126844" data-name="Grupo 1126844" transform="translate(11.2 5.38)" opacity="0.3">
                <path id="Trazado_988350" data-name="Trazado 988350" d="M36.435,59.256a2.043,2.043,0,0,0-1.863-2.866,1.983,1.983,0,0,0-1.282.464,2.034,2.034,0,1,1,3.145,2.4Z" transform="translate(-33.29 -55.64)"/>
              </g>
              <g id="Grupo_1126845" data-name="Grupo 1126845">
                <path id="Trazado_988351" data-name="Trazado 988351" d="M18.091,52.757a2.9,2.9,0,1,1,2.9-2.9A2.9,2.9,0,0,1,18.091,52.757Zm0-5.188a2.284,2.284,0,1,0,2.284,2.284A2.284,2.284,0,0,0,18.091,47.569Z" transform="translate(-15.2 -46.95)"/>
              </g>
            </g>
          </g>
          <g id="Grupo_1126853" data-name="Grupo 1126853" transform="translate(9.856)">
            <g id="Grupo_1126848" data-name="Grupo 1126848" transform="translate(0.303 0.316)">
              <path id="Trazado_988352" data-name="Trazado 988352" d="M34.928,36.563a3.2,3.2,0,1,1-3.213-3.213A3.21,3.21,0,0,1,34.928,36.563Z" transform="translate(-28.52 -33.35)" fill="#d3dae0"/>
            </g>
            <g id="Grupo_1126849" data-name="Grupo 1126849">
              <path id="Trazado_988353" data-name="Trazado 988353" d="M31.534,39.885a3.523,3.523,0,1,1,3.523-3.523A3.517,3.517,0,0,1,31.534,39.885Zm0-6.42a2.9,2.9,0,1,0,2.9,2.9A2.9,2.9,0,0,0,31.534,33.465Z" transform="translate(-28.03 -32.84)"/>
            </g>
            <g id="Grupo_1126852" data-name="Grupo 1126852" transform="translate(1.356 1.362)">
              <g id="Grupo_1126850" data-name="Grupo 1126850" transform="translate(0.31 0.316)">
                <path id="Trazado_988354" data-name="Trazado 988354" d="M34.41,37.4a1.845,1.845,0,1,1-1.851-1.851A1.852,1.852,0,0,1,34.41,37.4Z" transform="translate(-30.72 -35.55)" fill="#bec6cc"/>
              </g>
              <g id="Grupo_1126851" data-name="Grupo 1126851">
                <path id="Trazado_988355" data-name="Trazado 988355" d="M32.368,39.361A2.161,2.161,0,1,1,34.529,37.2,2.156,2.156,0,0,1,32.368,39.361Zm0-3.7a1.542,1.542,0,1,0,1.542,1.542A1.535,1.535,0,0,0,32.368,35.665Z" transform="translate(-30.22 -35.04)"/>
              </g>
            </g>
          </g>
        </g>
        <g id="Grupo_1126855" data-name="Grupo 1126855" transform="translate(3.227 16.734)">
          <path id="Trazado_988356" data-name="Trazado 988356" d="M0,0H8.061V2.52H0Z" transform="translate(0 4.627) rotate(-35.025)" fill="#283a49"/>
        </g>
        <g id="Grupo_1126856" data-name="Grupo 1126856" transform="translate(2.914 16.428)">
          <path id="Trazado_988357" data-name="Trazado 988357" d="M5.868,33.016a.306.306,0,0,1-.254-.13L4.165,30.819a.278.278,0,0,1-.05-.229.292.292,0,0,1,.13-.2l6.6-4.625a.3.3,0,0,1,.229-.05.292.292,0,0,1,.2.13l1.449,2.062a.314.314,0,0,1-.074.433l-6.6,4.618a.323.323,0,0,1-.18.056Zm-1.015-2.3,1.09,1.56,6.1-4.272-1.09-1.56Z" transform="translate(-4.109 -25.713)"/>
        </g>
        <g id="Grupo_1126863" data-name="Grupo 1126863" transform="translate(1.744 14.798)">
          <g id="Grupo_1126857" data-name="Grupo 1126857" transform="translate(0.664 0.315)">
            <path id="Trazado_988358" data-name="Trazado 988358" d="M0,0H6.1V1.888H0Z" transform="translate(0 3.504) rotate(-35.025)" fill="#f22020"/>
          </g>
          <g id="Grupo_1126858" data-name="Grupo 1126858" transform="translate(0.656 1.368)" opacity="0.3">
            <path id="Trazado_988359" data-name="Trazado 988359" d="M9.366,25.779l-5,3.5L3.28,27.735l.557-.39a1.289,1.289,0,0,0,1.8.316L9.019,25.29Z" transform="translate(-3.28 -25.29)"/>
          </g>
          <g id="Grupo_1126859" data-name="Grupo 1126859" transform="translate(0.353)">
            <path id="Trazado_988360" data-name="Trazado 988360" d="M4.183,28.751a.306.306,0,0,1-.254-.13L2.846,27.073a.314.314,0,0,1,.074-.433l5-3.5a.314.314,0,0,1,.433.074l1.083,1.548a.278.278,0,0,1,.05.229.292.292,0,0,1-.13.2l-5,3.5a.232.232,0,0,1-.173.062Zm-.656-1.777.731,1.04,4.495-3.151-.731-1.04Z" transform="translate(-2.79 -23.08)"/>
          </g>
          <g id="Grupo_1126860" data-name="Grupo 1126860" transform="translate(0.313 0.5)">
            <path id="Trazado_988361" data-name="Trazado 988361" d="M0,0H9.559V2.037H0Z" transform="translate(0 5.487) rotate(-35.025)" fill="#f33"/>
          </g>
          <g id="Grupo_1126861" data-name="Grupo 1126861" transform="translate(0.31 1.449)" opacity="0.3">
            <path id="Trazado_988362" data-name="Trazado 988362" d="M11.716,26.138,3.89,31.623,2.72,29.958l.724-.508a1.163,1.163,0,0,0,1.622.285l6.148-4.315Z" transform="translate(-2.72 -25.42)"/>
          </g>
          <g id="Grupo_1126862" data-name="Grupo 1126862" transform="translate(0 0.191)">
            <path id="Trazado_988363" data-name="Trazado 988363" d="M3.7,31.159a.306.306,0,0,1-.254-.13l-1.17-1.665a.314.314,0,0,1,.074-.433l7.832-5.485a.278.278,0,0,1,.229-.05.292.292,0,0,1,.2.13l1.17,1.665a.314.314,0,0,1-.074.433L3.879,31.1a.323.323,0,0,1-.18.056Zm-.737-1.9.811,1.164L11.1,25.29l-.811-1.164Z" transform="translate(-2.22 -23.389)"/>
          </g>
        </g>
        <g id="Grupo_1126864" data-name="Grupo 1126864" transform="translate(4.383 9.596)">
          <path id="Trazado_988364" data-name="Trazado 988364" d="M21.853,23.47a1.6,1.6,0,0,1-.687-.012,1.9,1.9,0,0,1-1.573,2.031,1.933,1.933,0,0,1-1.969-.873.42.42,0,0,1-.124.043,1.956,1.956,0,0,1-2.074-1.052.911.911,0,0,1-.241.161.726.726,0,0,1,.056.2,2.759,2.759,0,0,1-2.247,3.182,2.706,2.706,0,0,1-2.879-1.381,1.688,1.688,0,0,1-1.257,1,1.66,1.66,0,0,1-1.932-1.343,1.7,1.7,0,0,1,.526-1.542A2.735,2.735,0,0,1,8.01,19.34,2.392,2.392,0,0,1,9.9,17.576a.526.526,0,0,1,.241-.006,2.956,2.956,0,0,1,2.421-2.848A2.868,2.868,0,0,1,15.3,15.743a3.057,3.057,0,0,1,.4-.105,2.829,2.829,0,0,1,2.414.7,2.732,2.732,0,0,1,1.356-.656,2.907,2.907,0,0,1,3.374,2.365,2.79,2.79,0,0,1-.328,1.907,1.823,1.823,0,0,1,.892,1.294A1.911,1.911,0,0,1,21.853,23.47Z" transform="translate(-6.481 -14.676)" fill="#d3dae0"/>
        </g>
        <g id="Grupo_1126865" data-name="Grupo 1126865" transform="translate(4.068 9.288)">
          <path id="Trazado_988365" data-name="Trazado 988365" d="M12.317,27.311a3.013,3.013,0,0,1-2.384-1.152,1.977,1.977,0,0,1-1.213.724,2,2,0,0,1-1.486-.322,1.978,1.978,0,0,1-.415-2.848,3.045,3.045,0,0,1,.731-4.773,2.713,2.713,0,0,1,2.093-1.857h.006A3.246,3.246,0,0,1,12.3,14.229a3.184,3.184,0,0,1,2.9.972,1.38,1.38,0,0,1,.241-.056,3.127,3.127,0,0,1,2.47.607,2.973,2.973,0,0,1,1.3-.563,3.218,3.218,0,0,1,3.733,2.619,3.13,3.13,0,0,1-.229,1.857,2.155,2.155,0,0,1,.792,1.343A2.229,2.229,0,0,1,21.7,23.584a2.158,2.158,0,0,1-.433.037,2.232,2.232,0,0,1-3.981,1.158,2.315,2.315,0,0,1-1.907-.619,3.082,3.082,0,0,1-2.545,3.108,3.465,3.465,0,0,1-.52.043Zm-2.4-2.043a.315.315,0,0,1,.272.161,2.412,2.412,0,0,0,2.551,1.22,2.452,2.452,0,0,0,1.994-2.823.7.7,0,0,0-.031-.124.3.3,0,0,1-.006-.241.307.307,0,0,1,.167-.173.5.5,0,0,0,.161-.111.307.307,0,0,1,.26-.068.312.312,0,0,1,.217.167,1.649,1.649,0,0,0,1.746.885.289.289,0,0,1,.235-.056.309.309,0,0,1,.2.149,1.619,1.619,0,0,0,1.653.737,1.6,1.6,0,0,0,1.319-1.7.3.3,0,0,1,.111-.26.319.319,0,0,1,.279-.062,1.29,1.29,0,0,0,.557.006,1.591,1.591,0,0,0,1.3-1.863,1.522,1.522,0,0,0-.737-1.077.336.336,0,0,1-.149-.186.287.287,0,0,1,.031-.235,2.478,2.478,0,0,0,.291-1.7A2.6,2.6,0,0,0,19.331,15.8a2.471,2.471,0,0,0-1.207.582.312.312,0,0,1-.415-.006,2.536,2.536,0,0,0-2.154-.625,2.353,2.353,0,0,0-.285.074l-.074.025a.315.315,0,0,1-.328-.1,2.567,2.567,0,0,0-2.445-.91,2.666,2.666,0,0,0-2.167,2.551.311.311,0,0,1-.13.248.306.306,0,0,1-.272.043.242.242,0,0,0-.087.012,2.1,2.1,0,0,0-1.653,1.542.306.306,0,0,1-.161.2,2.424,2.424,0,0,0-.5,4.03.325.325,0,0,1,.111.229.314.314,0,0,1-.1.235,1.388,1.388,0,0,0-.433,1.257,1.352,1.352,0,0,0,.557.873,1.371,1.371,0,0,0,2.043-.594.319.319,0,0,1,.272-.192.019.019,0,0,1,.012-.006Z" transform="translate(-5.973 -14.18)"/>
        </g>
        <g id="Grupo_1126866" data-name="Grupo 1126866" transform="translate(8.755 17.387)">
          <path id="Trazado_988366" data-name="Trazado 988366" d="M15.795,28.2a1.135,1.135,0,1,1-1.306-.916A1.128,1.128,0,0,1,15.795,28.2Z" transform="translate(-13.543 -27.261)" fill="#bec6cc"/>
        </g>
        <g id="Grupo_1126867" data-name="Grupo 1126867" transform="translate(6.284 15.274)">
          <path id="Trazado_988367" data-name="Trazado 988367" d="M11.043,25.143a.822.822,0,1,1-.2-1.145A.83.83,0,0,1,11.043,25.143Z" transform="translate(-9.552 -23.848)" fill="#bec6cc"/>
        </g>
        <g id="Grupo_1126868" data-name="Grupo 1126868" transform="translate(9.273 11.185)">
          <path id="Trazado_988368" data-name="Trazado 988368" d="M17.568,18.572a1.606,1.606,0,1,1-1.857-1.306A1.618,1.618,0,0,1,17.568,18.572Z" transform="translate(-14.38 -17.243)" fill="#bec6cc"/>
        </g>
        <g id="Grupo_1126869" data-name="Grupo 1126869" transform="translate(9.298 11.189)" opacity="0.3">
          <path id="Trazado_988369" data-name="Trazado 988369" d="M17.249,19.856a1.72,1.72,0,0,0,0-.563,1.607,1.607,0,0,0-1.851-1.3,1.629,1.629,0,0,0-.978.57,1.606,1.606,0,1,1,2.829,1.294Z" transform="translate(-14.42 -17.25)"/>
        </g>
        <g id="Grupo_1126870" data-name="Grupo 1126870" transform="translate(6.345 15.381)" opacity="0.3">
          <path id="Trazado_988370" data-name="Trazado 988370" d="M11,25.258a.959.959,0,0,0,0-.266.765.765,0,0,0-.885-.619.731.731,0,0,0-.464.272.768.768,0,0,1,1.511.006A.78.78,0,0,1,11,25.258Z" transform="translate(-9.65 -24.021)"/>
        </g>
        <g id="Grupo_1126871" data-name="Grupo 1126871" transform="translate(8.728 17.393)" opacity="0.3">
          <path id="Trazado_988371" data-name="Trazado 988371" d="M15.555,29.159a1.133,1.133,0,0,0,0-.409,1.158,1.158,0,0,0-1.343-.941,1.214,1.214,0,0,0-.712.415,1.168,1.168,0,0,1,2.3.006A1.15,1.15,0,0,1,15.555,29.159Z" transform="translate(-13.5 -27.271)"/>
        </g>
        <g id="Grupo_1126872" data-name="Grupo 1126872" transform="translate(8.439 17.079)">
          <path id="Trazado_988372" data-name="Trazado 988372" d="M14.48,29.646a1.451,1.451,0,0,1-1.424-1.189A1.421,1.421,0,0,1,13.3,27.38a1.456,1.456,0,0,1,.935-.594,1.421,1.421,0,0,1,1.077.241,1.44,1.44,0,0,1-.576,2.6A1.751,1.751,0,0,1,14.48,29.646Zm.006-2.266a1.105,1.105,0,0,0-.142.012.843.843,0,0,0-.539.341.8.8,0,0,0-.136.613.837.837,0,0,0,.96.669.823.823,0,0,0,.328-1.486.815.815,0,0,0-.471-.149Z" transform="translate(-13.033 -26.763)"/>
        </g>
        <g id="Grupo_1126875" data-name="Grupo 1126875" transform="translate(15.479 16.615)">
          <g id="Grupo_1126873" data-name="Grupo 1126873" transform="translate(0.309 0.311)">
            <path id="Trazado_988373" data-name="Trazado 988373" d="M26.542,27.924a.9.9,0,0,1-1.251.223.89.89,0,0,1-.223-1.251.9.9,0,0,1,1.473,1.028Z" transform="translate(-24.903 -26.517)" fill="#bec6cc"/>
          </g>
          <g id="Grupo_1126874" data-name="Grupo 1126874">
            <path id="Trazado_988374" data-name="Trazado 988374" d="M25.615,28.426a1.21,1.21,0,0,1-1-1.9,1.21,1.21,0,0,1,1.684-.291,1.207,1.207,0,0,1-.483,2.179c-.068.006-.136.012-.2.012Zm-.006-1.8a.586.586,0,0,0-.334,1.071.586.586,0,0,0,.44.1.558.558,0,0,0,.378-.241.614.614,0,0,0,.1-.44.558.558,0,0,0-.241-.378A.535.535,0,0,0,25.609,26.631Z" transform="translate(-24.405 -26.014)"/>
          </g>
        </g>
        <g id="Grupo_1126878" data-name="Grupo 1126878" transform="translate(16.512 11.844)">
          <g id="Grupo_1126876" data-name="Grupo 1126876" transform="translate(0.306 0.303)">
            <path id="Trazado_988375" data-name="Trazado 988375" d="M28.7,20.638a1.171,1.171,0,1,1-.285-1.628A1.183,1.183,0,0,1,28.7,20.638Z" transform="translate(-26.568 -18.797)" fill="#bec6cc"/>
          </g>
          <g id="Grupo_1126877" data-name="Grupo 1126877">
            <path id="Trazado_988376" data-name="Trazado 988376" d="M27.551,21.263A1.462,1.462,0,0,1,26.709,21a1.481,1.481,0,0,1-.613-.953,1.474,1.474,0,0,1,2.3-1.467,1.458,1.458,0,0,1,.607.953,1.47,1.47,0,0,1-1.195,1.709,1.233,1.233,0,0,1-.26.025Zm0-2.34a.831.831,0,0,0-.7.365.872.872,0,0,0-.142.644.884.884,0,0,0,.359.557.863.863,0,0,0,.638.142.876.876,0,0,0,.557-.353.855.855,0,0,0-.21-1.195A.924.924,0,0,0,27.551,18.922Z" transform="translate(-26.073 -18.309)"/>
          </g>
        </g>
        <g id="Grupo_1126881" data-name="Grupo 1126881" transform="translate(12.845 14.15)">
          <g id="Grupo_1126879" data-name="Grupo 1126879" transform="translate(0.315 0.307)">
            <path id="Trazado_988377" data-name="Trazado 988377" d="M22.176,23.842a.836.836,0,1,1-.2-1.164A.846.846,0,0,1,22.176,23.842Z" transform="translate(-20.658 -22.529)" fill="#bec6cc"/>
          </g>
          <g id="Grupo_1126880" data-name="Grupo 1126880">
            <path id="Trazado_988378" data-name="Trazado 988378" d="M21.3,24.316a1.139,1.139,0,0,1-1.127-.941,1.125,1.125,0,0,1,.186-.854,1.158,1.158,0,0,1,.737-.471,1.129,1.129,0,0,1,.854.192,1.142,1.142,0,0,1,.279,1.591,1.111,1.111,0,0,1-.737.471A1.765,1.765,0,0,1,21.3,24.316Zm0-1.665a.469.469,0,0,0-.093.006.538.538,0,0,0-.341.21.518.518,0,0,0-.087.39.546.546,0,0,0,.217.341.512.512,0,0,0,.39.087A.52.52,0,0,0,21.3,22.65Z" transform="translate(-20.149 -22.033)"/>
          </g>
        </g>
        <g id="Grupo_1126882" data-name="Grupo 1126882" transform="translate(5.972 14.968)">
          <path id="Trazado_988379" data-name="Trazado 988379" d="M10.176,25.617a1.1,1.1,0,0,1-.644-.2,1.134,1.134,0,1,1,1.579-.285,1.113,1.113,0,0,1-.731.464.769.769,0,0,1-.2.025Zm0-1.641a.469.469,0,0,0-.093.006.5.5,0,0,0-.328.21.51.51,0,0,0,.13.712.516.516,0,0,0,.378.087.5.5,0,0,0,.328-.21.485.485,0,0,0,.08-.378.5.5,0,0,0-.21-.328A.421.421,0,0,0,10.176,23.977Z" transform="translate(-9.048 -23.353)"/>
        </g>
        <g id="Grupo_1126883" data-name="Grupo 1126883" transform="translate(8.966 10.876)">
          <path id="Trazado_988380" data-name="Trazado 988380" d="M15.8,20.568a1.912,1.912,0,0,1-.328-3.8,1.92,1.92,0,0,1,2.21,1.554,1.924,1.924,0,0,1-.316,1.43,1.891,1.891,0,0,1-1.232.78A1.564,1.564,0,0,1,15.8,20.568Zm0-3.2a1.353,1.353,0,0,0-.223.019,1.316,1.316,0,0,0-.842.532,1.278,1.278,0,0,0-.217.966,1.295,1.295,0,1,0,2.018-1.275A1.221,1.221,0,0,0,15.8,17.367Z" transform="translate(-13.884 -16.744)"/>
        </g>
        <g id="Grupo_1126909" data-name="Grupo 1126909" transform="translate(18.732 1.338)">
          <g id="Grupo_1126884" data-name="Grupo 1126884" transform="translate(17.967 3.016)">
            <path id="Trazado_988381" data-name="Trazado 988381" d="M58.7,8.018c.44,1.4.786,2.823,1.17,4.235l7.386-.508L65.824,6.21,58.68,7.981l.019.037Z" transform="translate(-58.68 -6.21)" fill="#fcd0a9"/>
          </g>
          <g id="Grupo_1126885" data-name="Grupo 1126885" transform="translate(17.967 4.453)" opacity="0.3">
            <path id="Trazado_988382" data-name="Trazado 988382" d="M67.248,12.628l-7.386.508c-.384-1.412-.731-2.835-1.17-4.235a.088.088,0,0,1-.012-.037l1.35-.334c.006.012.006.025.012.037A4.347,4.347,0,0,0,64.5,11.712l2.47-.167Z" transform="translate(-58.68 -8.53)"/>
          </g>
          <g id="Grupo_1126886" data-name="Grupo 1126886" transform="translate(17.666 2.709)">
            <path id="Trazado_988383" data-name="Trazado 988383" d="M59.684,12.373a.31.31,0,0,1-.3-.229L59.052,10.9c-.26-.978-.526-1.987-.83-2.965a.317.317,0,0,1,0-.26.334.334,0,0,1,.2-.18l7.144-1.771a.3.3,0,0,1,.371.223l1.43,5.535a.3.3,0,0,1-.05.26.313.313,0,0,1-.229.13l-7.386.508A.023.023,0,0,0,59.684,12.373Zm-.792-4.358c.279.9.52,1.833.755,2.724.087.334.173.662.266,1l6.761-.464L65.411,6.4Z" transform="translate(-58.195 -5.714)"/>
          </g>
          <g id="Grupo_1126887" data-name="Grupo 1126887" transform="translate(2.25 1.475)">
            <path id="Trazado_988384" data-name="Trazado 988384" d="M49.1,6.2l-3.937.96s-2.235-1.5-2.687-1.944a20.565,20.565,0,0,0-2.947-1.294c-.755-.371-1.114-.105-1.114-.105-1.418,1.158-2.631.681-2.606,1.213.062,1.436,2.687.991,2.687.991a1.906,1.906,0,0,0,1.306.477l.44.83c-.359.291-.7.57-1.022.83a24.764,24.764,0,0,0-5,.545,1.258,1.258,0,0,0-.842,1.665c.3.755.9,1,1.145.607.365-.588.768-.594.768-.594s1.251.074,1.74.031-.464,1.04-.464,1.04l2.408,2.062-.31,1.95c1.969-.149,3.318-1.882,7.473-3.312l4.451-.18Z" transform="translate(-33.293 -3.721)" fill="#fc3"/>
          </g>
          <g id="Grupo_1126888" data-name="Grupo 1126888" transform="translate(15.236 8.768)" opacity="0.3">
            <path id="Trazado_988385" data-name="Trazado 988385" d="M54.27,16.633l4.3-.173-.248-.96-4.055.167Z" transform="translate(-54.27 -15.5)"/>
          </g>
          <g id="Grupo_1126889" data-name="Grupo 1126889" transform="translate(1.944 1.17)">
            <path id="Trazado_988386" data-name="Trazado 988386" d="M38.477,15.586a.324.324,0,0,1-.229-.1.33.33,0,0,1-.08-.26l.285-1.783-2.278-1.95a.314.314,0,0,1-.025-.446,4.952,4.952,0,0,0,.4-.514c-.57.006-1.412-.043-1.461-.043.019,0-.229.031-.489.446a.684.684,0,0,1-.65.334,1.416,1.416,0,0,1-1.046-.984,1.569,1.569,0,0,1,1.009-2.068,22.892,22.892,0,0,1,5-.57l.743-.607L39.424,6.6A2.208,2.208,0,0,1,38.2,6.151a3.588,3.588,0,0,1-2.439-.4,1.217,1.217,0,0,1-.452-.91c-.031-.489.452-.576.836-.644a3.711,3.711,0,0,0,1.882-.811c.062-.05.551-.378,1.449.068a14.148,14.148,0,0,0,1.418.576,5.076,5.076,0,0,1,1.6.774c.334.322,1.845,1.362,2.532,1.826l3.807-.929a.312.312,0,0,1,.371.223L50.7,11.7a.306.306,0,0,1-.285.384l-4.408.18a23.853,23.853,0,0,0-4.433,2.08A7.368,7.368,0,0,1,38.5,15.58a.047.047,0,0,1-.025.006Zm-1.665-4.358,2.173,1.857a.31.31,0,0,1,.105.285l-.248,1.542a8.252,8.252,0,0,0,2.414-1.1,24.181,24.181,0,0,1,4.581-2.142.434.434,0,0,1,.087-.019L50,11.488,48.68,6.38l-3.646.892a.317.317,0,0,1-.248-.043c-.093-.062-2.26-1.529-2.73-1.975a5.048,5.048,0,0,0-1.393-.638,15.352,15.352,0,0,1-1.473-.6c-.551-.272-.8-.124-.8-.124a4.346,4.346,0,0,1-2.136.922,2.5,2.5,0,0,0-.328.068.558.558,0,0,0,.217.4,3.311,3.311,0,0,0,2.1.248.313.313,0,0,1,.272.087A1.623,1.623,0,0,0,39.591,6a.3.3,0,0,1,.285.167l.44.83a.306.306,0,0,1-.08.384l-1.022.83a.3.3,0,0,1-.186.068,23.081,23.081,0,0,0-4.885.52c-.984.415-.712,1.176-.675,1.263.167.415.415.588.526.6.019.006.037.006.068-.043a1.317,1.317,0,0,1,1.028-.737c.031,0,1.251.068,1.721.031a.419.419,0,0,1,.433.217c.062.111.18.353-.433,1.1Z" transform="translate(-32.799 -3.227)"/>
          </g>
          <g id="Grupo_1126902" data-name="Grupo 1126902" transform="translate(0)">
            <g id="Grupo_1126890" data-name="Grupo 1126890" transform="translate(6.885 4.849)">
              <path id="Trazado_988387" data-name="Trazado 988387" d="M43.906,20.264l3.343,3.647a.9.9,0,0,0,1.269.056l5.262-4.823a.9.9,0,0,0,.056-1.269l-6-6.55a5.471,5.471,0,0,0-2.563-1.573l-2.1-.582-2.4,2.192,1.393,2.359a4.53,4.53,0,0,1,.588,2.885,4.507,4.507,0,0,0,1.145,3.659Z" transform="translate(-40.78 -9.17)" fill="#c0c8ce"/>
            </g>
            <g id="Grupo_1126891" data-name="Grupo 1126891" transform="translate(7.083 6.539)" opacity="0.3">
              <path id="Trazado_988388" data-name="Trazado 988388" d="M43.063,16.345a4.536,4.536,0,0,0-.57-1.6L41.1,12.389l.532-.489.861,1.455a4.48,4.48,0,0,1,.582,2.885C43.069,16.277,43.069,16.314,43.063,16.345Z" transform="translate(-41.1 -11.9)"/>
            </g>
            <g id="Grupo_1126892" data-name="Grupo 1126892" transform="translate(8.829 11.944)" opacity="0.3">
              <path id="Trazado_988389" data-name="Trazado 988389" d="M54.983,23.5l-5.269,4.829a.892.892,0,0,1-1.263-.056l-3.343-3.646a4.522,4.522,0,0,1-1.189-3.052,4.689,4.689,0,0,1,.037-.588c.006-.05.539-.31.545-.359a4.481,4.481,0,0,0,.761,2.545,5.662,5.662,0,0,0,8.1.415l1.579-1.449.093.1A.9.9,0,0,1,54.983,23.5Z" transform="translate(-43.92 -20.63)"/>
            </g>
            <g id="Grupo_1126893" data-name="Grupo 1126893" transform="translate(8.823 11.009)" opacity="0.3">
              <path id="Trazado_988390" data-name="Trazado 988390" d="M43.966,20.259a3.86,3.86,0,0,1-.056-.656,4.206,4.206,0,0,1,.025-.483A4.663,4.663,0,0,1,43.966,20.259Z" transform="translate(-43.91 -19.12)"/>
            </g>
            <g id="Grupo_1126894" data-name="Grupo 1126894" transform="translate(6.576 4.557)">
              <path id="Trazado_988391" data-name="Trazado 988391" d="M47.722,24.332h-.056a1.2,1.2,0,0,1-.836-.39L43.487,20.3A4.832,4.832,0,0,1,42.261,16.4a4.2,4.2,0,0,0-.545-2.687l-1.393-2.359a.311.311,0,0,1,.056-.384l2.4-2.192a.3.3,0,0,1,.291-.068l2.1.582a5.758,5.758,0,0,1,2.705,1.659l6,6.55a1.2,1.2,0,0,1-.074,1.7l-5.262,4.823a1.241,1.241,0,0,1-.811.3ZM40.986,11.25,42.249,13.4a4.832,4.832,0,0,1,.625,3.083,4.161,4.161,0,0,0,1.071,3.393l3.343,3.647a.569.569,0,0,0,.409.192.583.583,0,0,0,.421-.155l5.262-4.823a.569.569,0,0,0,.192-.409.583.583,0,0,0-.155-.421l-6-6.544A5.086,5.086,0,0,0,45,9.882l-1.938-.539Z" transform="translate(-40.281 -8.699)"/>
            </g>
            <g id="Grupo_1126895" data-name="Grupo 1126895" transform="translate(5.523 3.357)">
              <path id="Trazado_988392" data-name="Trazado 988392" d="M38.58,8.574,40.555,6.76,42.332,8a.148.148,0,0,1,.012.235l-2.452,2.247a.15.15,0,0,1-.235-.037Z" transform="translate(-38.58 -6.76)" fill="#34495e"/>
            </g>
            <g id="Grupo_1126896" data-name="Grupo 1126896" transform="translate(5.523 4.329)" opacity="0.3">
              <path id="Trazado_988393" data-name="Trazado 988393" d="M42.35,8.844,39.9,11.091a.15.15,0,0,1-.235-.037L38.58,9.172l.458-.421a1.37,1.37,0,0,0,2.062.316l.842-.737.4.279S42.425,8.776,42.35,8.844Z" transform="translate(-38.58 -8.33)"/>
            </g>
            <g id="Grupo_1126897" data-name="Grupo 1126897" transform="translate(5.214 3.045)">
              <path id="Trazado_988394" data-name="Trazado 988394" d="M39.61,10.648a.3.3,0,0,1-.074-.006.459.459,0,0,1-.328-.223L38.124,8.537a.3.3,0,0,1,.062-.384l1.975-1.814a.3.3,0,0,1,.384-.025l1.777,1.244a.458.458,0,0,1,.2.347.449.449,0,0,1-.149.371l-2.452,2.247a.43.43,0,0,1-.31.124Zm-.823-2.2.861,1.492,2.161-1.981L40.4,6.964Z" transform="translate(-38.081 -6.256)"/>
            </g>
            <g id="Grupo_1126898" data-name="Grupo 1126898" transform="translate(2.141 4.371)">
              <path id="Trazado_988395" data-name="Trazado 988395" d="M35.85,14.231a.318.318,0,0,1-.31-.272A9.163,9.163,0,0,0,33.2,8.919a.311.311,0,1,1,.458-.421,9.757,9.757,0,0,1,2.495,5.38.316.316,0,0,1-.272.347.046.046,0,0,1-.031.006Z" transform="translate(-33.118 -8.398)"/>
            </g>
            <g id="Grupo_1126899" data-name="Grupo 1126899" transform="translate(0.311 0.313)">
              <path id="Trazado_988396" data-name="Trazado 988396" d="M36.017,1.971l1.814,1.981a.4.4,0,0,1-.025.563L34.8,7.271a.412.412,0,0,1-.409.08l-1.114-.415a.848.848,0,0,0-.879.173l-.929.854a.4.4,0,0,1-.563-.025l-.638-.693a.4.4,0,0,1,.025-.563l5.163-4.73A.394.394,0,0,1,36.017,1.971Z" transform="translate(-30.162 -1.843)" fill="#d3dae0"/>
            </g>
            <g id="Grupo_1126900" data-name="Grupo 1126900" transform="translate(0.306 2.212)" opacity="0.3">
              <path id="Trazado_988397" data-name="Trazado 988397" d="M37.8,5.69,34.795,8.445a.381.381,0,0,1-.409.08l-1.114-.415a.864.864,0,0,0-.879.173l-.929.848a.389.389,0,0,1-.563-.025l-.638-.693a.389.389,0,0,1,.025-.563l.068-.062.545.588a.4.4,0,0,0,.563.025l.811-.966a.849.849,0,0,1,.879-.167l1.114.415a.407.407,0,0,0,.409-.08L37.618,4.91l.21.217A.389.389,0,0,1,37.8,5.69Z" transform="translate(-30.154 -4.91)"/>
            </g>
            <g id="Grupo_1126901" data-name="Grupo 1126901">
              <path id="Trazado_988398" data-name="Trazado 988398" d="M31.009,8.186a.733.733,0,0,1-.526-.229l-.638-.693a.718.718,0,0,1,.043-1.009l5.163-4.73a.688.688,0,0,1,.514-.186.716.716,0,0,1,.5.229l1.82,1.981a.718.718,0,0,1-.043,1.009L34.823,7.313a.716.716,0,0,1-.731.142l-1.114-.415a.539.539,0,0,0-.563.111l-.929.854a.737.737,0,0,1-.477.18Zm4.519-6.222a.1.1,0,0,0-.062.019L30.3,6.713a.1.1,0,0,0-.006.13l.638.693a.1.1,0,0,0,.13.006l.929-.854a1.163,1.163,0,0,1,1.195-.235l1.114.415a.086.086,0,0,0,.093-.019L37.4,4.094a.1.1,0,0,0,.006-.13l-1.82-1.981a.1.1,0,0,0-.062-.019Z" transform="translate(-29.659 -1.338)"/>
            </g>
          </g>
          <g id="Grupo_1126908" data-name="Grupo 1126908" transform="translate(4.59 7.857)">
            <g id="Grupo_1126903" data-name="Grupo 1126903" transform="translate(0.313 0.294)">
              <path id="Trazado_988399" data-name="Trazado 988399" d="M42.78,17.362s1.653,1.071-2.21,2.829c-.867.291-1.152-1.182-.724-1.405-1.077.248-1.913-.545-1.368-1.517a.964.964,0,0,1-.83-1.331c.192-.582.91-.786,1.746-.792,1.7-.508,3.677-1.374,3.554.545,0,0,.563.21.644.613.161.811-.811,1.059-.811,1.059Z" transform="translate(-37.579 -14.504)" fill="#fc3"/>
            </g>
            <g id="Grupo_1126904" data-name="Grupo 1126904" transform="translate(0.307 1.282)" opacity="0.3">
              <path id="Trazado_988400" data-name="Trazado 988400" d="M40.975,19.994a7.092,7.092,0,0,0,2.148-1.35c-.019.489-.526,1.226-2.563,2.161-.613.2-.935-.477-.916-.966a.409.409,0,0,0-.378-.4.983.983,0,0,1-.792-1.548.967.967,0,0,1-.836-1.331.912.912,0,0,1,.347-.458.9.9,0,0,0,.539.867.422.422,0,0,1,.21.483.977.977,0,0,0,.941,1.176.409.409,0,0,1,.378.4c-.012.489.31,1.17.922.966Z" transform="translate(-37.569 -16.1)"/>
            </g>
            <g id="Grupo_1126905" data-name="Grupo 1126905">
              <path id="Trazado_988401" data-name="Trazado 988401" d="M40.16,20.357a.966.966,0,0,1-.885-.65,1.541,1.541,0,0,1-.118-.743,1.5,1.5,0,0,1-1.114-.551,1.225,1.225,0,0,1-.18-1.114,1.309,1.309,0,0,1-.619-.514,1.28,1.28,0,0,1-.087-1.114c.149-.446.613-.984,1.994-1,.18-.056.359-.111.545-.167,1.182-.371,2.3-.724,2.941-.223a1.279,1.279,0,0,1,.433,1.052,1.192,1.192,0,0,1,.638.749,1.131,1.131,0,0,1-.607,1.232,1.04,1.04,0,0,1,.142.607c-.056.792-.953,1.573-2.743,2.39a1.372,1.372,0,0,1-.341.05ZM39.653,18.3a.312.312,0,0,1,.142.588.85.85,0,0,0,.105.693.287.287,0,0,0,.371.142c2.062-.941,2.334-1.616,2.353-1.857a.484.484,0,0,0-.21-.415.308.308,0,0,1,.093-.557c.074-.019.687-.2.594-.7-.037-.173-.316-.334-.452-.384a.3.3,0,0,1-.2-.31c.025-.371-.037-.619-.192-.737-.384-.3-1.443.031-2.377.328-.2.062-.4.124-.594.186a.365.365,0,0,1-.087.012c-.576.006-1.3.111-1.455.582a.7.7,0,0,0,.025.594.815.815,0,0,0,.557.334.314.314,0,0,1,.229.173.308.308,0,0,1-.006.285.711.711,0,0,0-.019.792,1.01,1.01,0,0,0,1.046.272A.091.091,0,0,1,39.653,18.3Z" transform="translate(-37.073 -14.029)"/>
            </g>
            <g id="Grupo_1126906" data-name="Grupo 1126906" transform="translate(0.901 1.177)">
              <path id="Trazado_988402" data-name="Trazado 988402" d="M38.839,18.128a.311.311,0,0,1-.3-.241.3.3,0,0,1,.235-.365,17.333,17.333,0,0,0,4.365-1.535.307.307,0,1,1,.347.508A17.522,17.522,0,0,1,38.9,18.122c-.019,0-.043.006-.062.006Z" transform="translate(-38.528 -15.93)"/>
            </g>
            <g id="Grupo_1126907" data-name="Grupo 1126907" transform="translate(2.273 2.851)">
              <path id="Trazado_988403" data-name="Trazado 988403" d="M41.051,20.675a.3.3,0,0,1-.285-.192.308.308,0,0,1,.173-.4A17.633,17.633,0,0,0,43.794,18.7a.308.308,0,0,1,.384.483,19.148,19.148,0,0,1-3.009,1.467A.287.287,0,0,1,41.051,20.675Z" transform="translate(-40.745 -18.634)"/>
            </g>
          </g>
        </g>
        <g id="Grupo_1126910" data-name="Grupo 1126910" transform="translate(16.869 12.156)" opacity="0.3">
          <path id="Trazado_988404" data-name="Trazado 988404" d="M28.705,20.7a1.133,1.133,0,0,0,0-.409,1.158,1.158,0,0,0-1.343-.941,1.214,1.214,0,0,0-.712.415,1.168,1.168,0,0,1,2.3.006A1.144,1.144,0,0,1,28.705,20.7Z" transform="translate(-26.65 -18.811)"/>
        </g>
        <g id="Grupo_1126911" data-name="Grupo 1126911" transform="translate(13.192 14.588)" opacity="0.3">
          <path id="Trazado_988405" data-name="Trazado 988405" d="M22.084,24a1,1,0,0,0,0-.272.78.78,0,0,0-1.374-.353.777.777,0,0,1,1.529.006A.732.732,0,0,1,22.084,24Z" transform="translate(-20.71 -22.741)"/>
        </g>
        <g id="Grupo_1126912" data-name="Grupo 1126912" transform="translate(15.798 16.927)" opacity="0.3">
          <path id="Trazado_988406" data-name="Trazado 988406" d="M26.5,27.974a.9.9,0,0,0-1.034-1.046.868.868,0,0,0-.545.322.9.9,0,1,1,1.579.724Z" transform="translate(-24.92 -26.518)"/>
        </g>
        <g id="Grupo_1126913" data-name="Grupo 1126913" transform="translate(19.494 22.543)" opacity="0.3">
          <path id="Trazado_988407" data-name="Trazado 988407" d="M33.695,38.8a1.81,1.81,0,0,0-2.8-2.136,1.813,1.813,0,1,1,2.8,2.136Z" transform="translate(-30.89 -35.59)"/>
        </g>
      </g>
    </g>
  </g>
</svg>
