<svg xmlns="http://www.w3.org/2000/svg" width="72.073" height="72.073" viewBox="0 0 72.073 72.073">
  <g id="Grupo_1126936" data-name="Grupo 1126936" transform="translate(-1 -1)">
    <path id="Trazado_988415" data-name="Trazado 988415" d="M10,48.6V34.65A4.65,4.65,0,0,1,14.65,30H56.5a4.65,4.65,0,0,1,4.65,4.65V48.6Z" transform="translate(1.462 4.712)" fill="#c8cded"/>
    <path id="Trazado_988416" data-name="Trazado 988416" d="M56.5,42.371V30H14.65A4.65,4.65,0,0,0,10,34.65V44.7H54.174A2.325,2.325,0,0,0,56.5,42.371Z" transform="translate(1.462 4.712)" fill="#e2e7f6"/>
    <path id="Trazado_988417" data-name="Trazado 988417" d="M10,56v4.65a2.325,2.325,0,0,0,2.325,2.325h9.3A2.325,2.325,0,0,0,23.95,60.65V56" transform="translate(1.462 8.936)" fill="#939393"/>
    <path id="Trazado_988418" data-name="Trazado 988418" d="M42,56v4.65a2.325,2.325,0,0,0,2.325,2.325h9.3A2.325,2.325,0,0,0,55.95,60.65V56" transform="translate(6.661 8.936)" fill="#939393"/>
    <path id="Trazado_988419" data-name="Trazado 988419" d="M11.3,42.975H5.487A3.487,3.487,0,0,1,2,39.487H2A3.487,3.487,0,0,1,5.487,36H11.3" transform="translate(0.162 5.687)" fill="#5e87ca"/>
    <path id="Trazado_988420" data-name="Trazado 988420" d="M54,42.975h5.812A3.487,3.487,0,0,0,63.3,39.487h0A3.487,3.487,0,0,0,59.812,36H54" transform="translate(8.611 5.687)" fill="#5e87ca"/>
    <rect id="Rectángulo_415837" data-name="Rectángulo 415837" width="57.985" height="11.938" rx="2" transform="translate(8.044 53.238)" fill="#3b5892"/>
    <path id="Trazado_988421" data-name="Trazado 988421" d="M44.224,26.412h5.812l5.812,5.812V39.2l-4.65-4.65h-4.65V39.2l4.65,4.65H44.224l-5.812-5.812V32.224L25.625,19.437H19.812L14,13.625V6.65l4.65,4.65H23.3V6.65L18.65,2h6.975l5.812,5.812v5.812Z" transform="translate(2.112 0.162)" fill="#939393"/>
    <path id="Trazado_988422" data-name="Trazado 988422" d="M37.812,22.924,41.3,19.437h5.812l5.812-5.812V6.65l-4.65,4.65H43.626V6.65L48.275,2H41.3L35.487,7.812v5.812L32,17.112" transform="translate(5.037 0.162)" fill="#686868"/>
    <path id="Trazado_988423" data-name="Trazado 988423" d="M29.112,20l-3.487,3.487H18.65L14,28.137v8.137l4.65,4.65h8.137l4.65-4.65V29.3l3.487-3.487" transform="translate(2.112 3.087)" fill="#686868"/>
    <path id="Trazado_988424" data-name="Trazado 988424" d="M20.325,27h3.487l2.325,2.325v3.487l-2.325,2.325H20.325L18,32.812V29.325Z" transform="translate(2.762 4.224)" fill="#fff"/>
    <circle id="Elipse_12137" data-name="Elipse 12137" cx="4.69" cy="4.69" r="4.69" transform="translate(14.866 50.68)" fill="#f0ae42"/>
    <circle id="Elipse_12138" data-name="Elipse 12138" cx="4.69" cy="4.69" r="4.69" transform="translate(49.827 50.68)" fill="#f0ae42"/>
    <path id="Trazado_988425" data-name="Trazado 988425" d="M43,48.65a4.625,4.625,0,0,0,1.5,3.4,4.632,4.632,0,0,0,3.969-7.972A4.6,4.6,0,0,0,43,48.65Z" transform="translate(6.824 6.986)" fill="#f9d266"/>
    <path id="Trazado_988426" data-name="Trazado 988426" d="M13,48.65a4.625,4.625,0,0,0,1.5,3.4,4.632,4.632,0,0,0,3.969-7.972A4.6,4.6,0,0,0,13,48.65Z" transform="translate(1.95 6.986)" fill="#f9d266"/>
    <path id="Trazado_988427" data-name="Trazado 988427" d="M25,46v4.65a2.325,2.325,0,0,0,2.325,2.325H38.95a2.325,2.325,0,0,0,2.325-2.325V46" transform="translate(3.899 7.311)" fill="#5e87ca"/>
    <path id="Trazado_988428" data-name="Trazado 988428" d="M20.487,36.462h3.487a1.162,1.162,0,0,0,.822-.34L27.122,33.8a1.162,1.162,0,0,0,.341-.822V29.487a1.162,1.162,0,0,0-.34-.822L24.8,26.341A1.162,1.162,0,0,0,23.975,26H20.487a1.162,1.162,0,0,0-.822.34l-2.325,2.325a1.162,1.162,0,0,0-.341.822v3.487a1.162,1.162,0,0,0,.34.822l2.325,2.325A1.162,1.162,0,0,0,20.487,36.462Zm-1.162-6.494,1.644-1.644h2.525l1.644,1.644v2.525l-1.644,1.644H20.969l-1.644-1.644Z" transform="translate(2.6 4.062)"/>
    <path id="Trazado_988429" data-name="Trazado 988429" d="M68.423,40.524h-4.65V39.362a5.823,5.823,0,0,0-4.65-5.7V32.387a1.162,1.162,0,0,0-.34-.822l-5.813-5.813a1.162,1.162,0,0,0-.822-.341H46.818l-2.325-2.325,2.325-2.325h5.331a1.162,1.162,0,0,0,.822-.34l5.813-5.813a1.163,1.163,0,0,0,.341-.822V6.812a1.162,1.162,0,0,0-1.984-.822L52.83,10.3H49.824V7.294l4.309-4.309A1.162,1.162,0,0,0,53.311,1H46.336a1.162,1.162,0,0,0-.822.34L39.7,7.153a1.162,1.162,0,0,0-.341.822v5.331l-2.325,2.325-2.325-2.325V7.975a1.162,1.162,0,0,0-.34-.822L28.559,1.341A1.162,1.162,0,0,0,27.737,1H20.762a1.162,1.162,0,0,0-.822,1.984l4.309,4.309V10.3H21.243L16.934,5.99a1.162,1.162,0,0,0-1.984.822v6.975a1.162,1.162,0,0,0,.34.822L21.1,20.421a1.162,1.162,0,0,0,.822.341h5.331l2.325,2.325-2.325,2.325H20.762a1.162,1.162,0,0,0-.822.34L15.29,30.4a1.162,1.162,0,0,0-.341.822v2.441a5.823,5.823,0,0,0-4.65,5.7v1.162H5.65a4.65,4.65,0,0,0,0,9.3H10.3v2.325a3.487,3.487,0,0,0-3.487,3.487v6.975A3.487,3.487,0,0,0,10.3,66.1v3.487a3.487,3.487,0,0,0,3.487,3.487h9.3a3.487,3.487,0,0,0,3.487-3.487V66.1H47.5v3.487a3.487,3.487,0,0,0,3.487,3.487h9.3a3.487,3.487,0,0,0,3.487-3.487V66.1a3.487,3.487,0,0,0,3.487-3.487V55.636a3.487,3.487,0,0,0-3.487-3.487V49.824h4.65a4.65,4.65,0,0,0,0-9.3ZM41.346,14.609a1.162,1.162,0,0,0,.341-.822V8.456l5.131-5.131h3.687L47.839,5.99a1.162,1.162,0,0,0-.341.822v4.65a1.162,1.162,0,0,0,1.162,1.162h4.65a1.162,1.162,0,0,0,.822-.34L56.8,9.619v3.687l-5.131,5.131H46.336a1.162,1.162,0,0,0-.822.34l-2.666,2.666L38.68,17.275ZM27.737,18.437H22.406l-5.131-5.131V9.619l2.666,2.666a1.162,1.162,0,0,0,.822.341h4.65a1.162,1.162,0,0,0,1.162-1.162V6.812a1.162,1.162,0,0,0-.34-.822L23.568,3.325h3.687l5.131,5.131v5.331a1.162,1.162,0,0,0,.34.822L45.515,27.4a1.162,1.162,0,0,0,.822.341h5.331L56.8,32.868v3.687L54.133,33.89a1.162,1.162,0,0,0-.822-.341h-4.65A1.162,1.162,0,0,0,47.5,34.712v4.65a1.162,1.162,0,0,0,.34.822l2.666,2.666H46.818l-5.131-5.131V32.387a1.162,1.162,0,0,0-.34-.822L28.559,18.778A1.162,1.162,0,0,0,27.737,18.437ZM39.362,32.868v.681h-4.65v-.681l2.325-2.325ZM17.275,31.706l3.969-3.969h6.494a1.162,1.162,0,0,0,.822-.34l2.666-2.666L35.393,28.9l-2.666,2.666a1.162,1.162,0,0,0-.341.822V38.88l-3.969,3.969H21.243L17.275,38.88ZM5.65,47.5a2.325,2.325,0,1,1,0-4.65H10.3V47.5Zm18.6,22.087a1.162,1.162,0,0,1-1.162,1.162h-9.3a1.162,1.162,0,0,1-1.162-1.162V66.1H24.249Zm37.2,0a1.162,1.162,0,0,1-1.162,1.162h-9.3a1.162,1.162,0,0,1-1.162-1.162V66.1H61.449Zm3.487-13.95v6.975a1.162,1.162,0,0,1-1.162,1.162H10.3a1.162,1.162,0,0,1-1.162-1.162V55.636A1.162,1.162,0,0,1,10.3,54.474h3.6a5.812,5.812,0,1,0,11.392,0h2.441v3.487a3.487,3.487,0,0,0,3.487,3.487H42.849a3.487,3.487,0,0,0,3.487-3.487V54.474h2.441a5.812,5.812,0,1,0,11.392,0h3.6A1.162,1.162,0,0,1,64.936,55.636Zm-48.824,0A3.487,3.487,0,1,1,19.6,59.124,3.487,3.487,0,0,1,16.112,55.636Zm13.95-1.162h13.95v3.487a1.162,1.162,0,0,1-1.162,1.162H31.224a1.162,1.162,0,0,1-1.162-1.162Zm20.924,1.162a3.487,3.487,0,1,1,3.487,3.487A3.487,3.487,0,0,1,50.986,55.636Zm8.107-3.487a5.752,5.752,0,0,0-9.239,0H24.219a5.752,5.752,0,0,0-9.239,0H12.625V39.362a3.487,3.487,0,0,1,2.325-3.274v3.274a1.162,1.162,0,0,0,.34.822l4.65,4.65a1.162,1.162,0,0,0,.822.341H28.9a1.162,1.162,0,0,0,.822-.34l4.65-4.65a1.162,1.162,0,0,0,.341-.822V35.874h4.65V38.2a1.162,1.162,0,0,0,.34.822l5.813,5.813a1.162,1.162,0,0,0,.822.341h6.975a1.162,1.162,0,0,0,.822-1.984L49.824,38.88V35.874H52.83l4.309,4.309a1.162,1.162,0,0,0,1.984-.822V36.088a3.487,3.487,0,0,1,2.325,3.274V52.149Zm9.33-4.65h-4.65v-4.65h4.65a2.325,2.325,0,1,1,0,4.65Z"/>
  </g>
</svg>
