<svg xmlns="http://www.w3.org/2000/svg" xmlns:xlink="http://www.w3.org/1999/xlink" width="54.93" height="73" viewBox="0 0 54.93 73">
  <defs>
    <filter id="Rectángulo_401320" x="0" y="0" width="36" height="73" filterUnits="userSpaceOnUse">
      <feOffset dy="3" input="SourceAlpha"/>
      <feGaussianBlur stdDeviation="3" result="blur"/>
      <feFlood flood-opacity="0.161"/>
      <feComposite operator="in" in2="blur"/>
      <feComposite in="SourceGraphic"/>
    </filter>
    <filter id="Rectángulo_401321" x="9" y="5" width="36" height="68" filterUnits="userSpaceOnUse">
      <feOffset dy="3" input="SourceAlpha"/>
      <feGaussianBlur stdDeviation="3" result="blur-2"/>
      <feFlood flood-opacity="0.161"/>
      <feComposite operator="in" in2="blur-2"/>
      <feComposite in="SourceGraphic"/>
    </filter>
  </defs>
  <g id="Grupo_1107629" data-name="Grupo 1107629" transform="translate(-181.73 -2027)">
    <g transform="matrix(1, 0, 0, 1, 181.73, 2027)" filter="url(#Rectángulo_401320)">
      <rect id="Rectángulo_401320-2" data-name="Rectángulo 401320" width="18" height="55" rx="2" transform="translate(9 6)" fill="#aab0fa"/>
    </g>
    <g transform="matrix(1, 0, 0, 1, 181.73, 2027)" filter="url(#Rectángulo_401321)">
      <rect id="Rectángulo_401321-2" data-name="Rectángulo 401321" width="18" height="50" rx="2" transform="translate(18 11)" fill="#e8eafd"/>
    </g>
    <g id="Layer_x0020_1" transform="translate(193.291 2041.555)">
      <path id="Trazado_897787" data-name="Trazado 897787" d="M11.66,15.788c-4.3,0-7.622-4.342-8.959-8.471A3.776,3.776,0,0,1,.443,3.926,4.08,4.08,0,0,1,2.465.452.543.543,0,0,1,2.73.383H20.591a.544.544,0,0,1,.265.069,4.081,4.081,0,0,1,2.022,3.474,3.777,3.777,0,0,1-2.259,3.391c-1.336,4.129-4.663,8.471-8.959,8.471ZM2.879,1.471A3.018,3.018,0,0,0,1.531,3.926a2.687,2.687,0,0,0,1.78,2.46.542.542,0,0,1,.35.358c1.166,3.832,4.167,7.956,8,7.956s6.832-4.124,8-7.956a.545.545,0,0,1,.351-.358,2.687,2.687,0,0,0,1.78-2.46,3.017,3.017,0,0,0-1.348-2.455H2.879Z" transform="translate(10.109 10.047)" fill-rule="evenodd"/>
      <path id="Trazado_897788" data-name="Trazado 897788" d="M18.919,11.518H1.051a.544.544,0,0,1-.544-.56l.015-.531a.464.464,0,0,1,0-.049L1.108,5.5C1.562,1.7,5.89,0,9.978,0c3.959,0,8.427,1.722,8.877,5.5l.582,4.876c0,.016,0,.033,0,.049l.012.441a.545.545,0,0,1-.534.65ZM1.616,10.43H18.348l-.573-4.8c-.372-3.122-4.3-4.544-7.8-4.544S2.561,2.509,2.188,5.631l-.572,4.8Z" transform="translate(11.787)" fill-rule="evenodd"/>
      <path id="Trazado_897789" data-name="Trazado 897789" d="M15.718,4.932a5.3,5.3,0,0,1-1.127-.182A18.637,18.637,0,0,0,9.96,4.245a18.667,18.667,0,0,0-4.631.505A5.273,5.273,0,0,1,4.2,4.932c-1.04,0-1.517-.69-3.1-2.975L.6,1.237A.544.544,0,0,1,1.051.383H18.868a.543.543,0,0,1,.446.854l-.5.719c-1.582,2.286-2.059,2.976-3.1,2.976ZM9.959,3.157a19.613,19.613,0,0,1,4.873.533,4.65,4.65,0,0,0,.885.155c.443,0,.786-.458,2.112-2.374H2.089C3.415,3.387,3.759,3.845,4.2,3.845a4.656,4.656,0,0,0,.885-.155,19.627,19.627,0,0,1,4.873-.533Z" transform="translate(11.787 10.047)" fill-rule="evenodd"/>
      <path id="Trazado_897790" data-name="Trazado 897790" d="M1.018,12.071a.544.544,0,0,1-.544-.544v-9.4a.544.544,0,0,1,.357-.511A10.04,10.04,0,0,1,4.281,1h.584a.544.544,0,0,1,.544.544v9.84a.544.544,0,0,1-.524.543.554.554,0,0,1-.562-.5,1.382,1.382,0,0,0-2.761.1.543.543,0,0,1-.543.545Zm.544-9.555V9.481a2.459,2.459,0,0,1,2.759,0V2.088h-.04a8.913,8.913,0,0,0-2.719.428Z" transform="translate(10.933 26.199)" fill-rule="evenodd"/>
      <path id="Trazado_897791" data-name="Trazado 897791" d="M1.594,12.07a.544.544,0,0,1-.544-.544V1.543A.544.544,0,0,1,1.594,1h.59a10.048,10.048,0,0,1,3.444.614.545.545,0,0,1,.358.511v9.258a.544.544,0,0,1-.524.543.554.554,0,0,1-.562-.5,1.382,1.382,0,0,0-2.76.1.545.545,0,0,1-.544.544Zm.544-9.983V9.48a2.459,2.459,0,0,1,2.759,0V2.514a8.91,8.91,0,0,0-2.713-.426H2.138Z" transform="translate(26.027 26.2)" fill-rule="evenodd"/>
      <path id="Trazado_897792" data-name="Trazado 897792" d="M1.219,6.113a.544.544,0,0,1-.544-.544V1.39a.544.544,0,0,1,1.088,0V5.569A.544.544,0,0,1,1.219,6.113Z" transform="translate(16.19 22.174)" fill-rule="evenodd"/>
      <path id="Trazado_897793" data-name="Trazado 897793" d="M1.54,6.113A.544.544,0,0,1,1,5.569V1.39a.544.544,0,1,1,1.088,0V5.569A.544.544,0,0,1,1.54,6.113Z" transform="translate(24.589 22.174)" fill-rule="evenodd"/>
      <path id="Trazado_897794" data-name="Trazado 897794" d="M24.3,10.63H.948A.544.544,0,0,1,.4,10.086V1.91a.544.544,0,0,1,.544-.544H2.861A.544.544,0,0,1,3.4,1.91a1.382,1.382,0,1,0,2.765,0,.544.544,0,0,1,.544-.544H18.53a.544.544,0,0,1,.544.544,1.382,1.382,0,1,0,2.764,0,.544.544,0,0,1,.544-.544h1.913a.544.544,0,0,1,.544.544v8.176a.543.543,0,0,1-.543.544ZM1.492,9.542h22.26V2.454h-.886a2.47,2.47,0,0,1-4.819,0H7.2a2.47,2.47,0,0,1-4.819,0H1.492V9.542Z" transform="translate(9.091 35.815)" fill-rule="evenodd"/>
      <path id="Trazado_897795" data-name="Trazado 897795" d="M3.521,6.236a2.47,2.47,0,1,1,2.47-2.47A2.473,2.473,0,0,1,3.521,6.236Zm0-3.852A1.382,1.382,0,1,0,4.9,3.766,1.383,1.383,0,0,0,3.521,2.384Z" transform="translate(26.026 33.96)" fill-rule="evenodd"/>
      <path id="Trazado_897796" data-name="Trazado 897796" d="M2.944,6.236a2.47,2.47,0,1,1,2.47-2.47A2.473,2.473,0,0,1,2.944,6.236Zm0-3.852A1.382,1.382,0,1,0,4.327,3.766,1.384,1.384,0,0,0,2.944,2.384Z" transform="translate(10.933 33.96)" fill-rule="evenodd"/>
      <path id="Trazado_897797" data-name="Trazado 897797" d="M38.929,2.6H31.5a.544.544,0,0,1,0-1.088h7.428a.544.544,0,0,1,0,1.088ZM8.154,2.6H.673a.544.544,0,0,1,0-1.088H8.154a.544.544,0,0,1,0,1.088Z" transform="translate(1.885 39.72)" fill-rule="evenodd"/>
      <path id="Trazado_897798" data-name="Trazado 897798" d="M10.61,4.084h-9.4A.544.544,0,0,1,.663,3.54V.683A.544.544,0,0,1,1.206.139h9.4a.544.544,0,0,1,.544.544V3.54a.544.544,0,0,1-.544.544ZM1.75,3h8.316V1.227H1.75Z" transform="translate(15.861 3.647)" fill-rule="evenodd"/>
      <path id="Trazado_897799" data-name="Trazado 897799" d="M6.566,8.532a.544.544,0,0,1-.381-.156A10.866,10.866,0,0,0,1.562,5.584a.544.544,0,0,1-.322-.8l2.1-3.638a.544.544,0,0,1,.743-.2L8.992,3.786a.544.544,0,0,1,.2.743L7.037,8.26a.545.545,0,0,1-.4.267.527.527,0,0,1-.073.005ZM2.519,4.749A11.9,11.9,0,0,1,6.437,7.123l1.54-2.667L4.01,2.166,2.519,4.749Z" transform="translate(29.082 23.045)" fill-rule="evenodd"/>
      <path id="Trazado_897800" data-name="Trazado 897800" d="M1.878,7.6a.544.544,0,0,1-.47-.816L4.754.99a.544.544,0,0,1,.942.544L2.349,7.33a.544.544,0,0,1-.471.272Z" transform="translate(33.469 18.827)" fill-rule="evenodd"/>
      <path id="Trazado_897801" data-name="Trazado 897801" d="M2.363,7.109a.544.544,0,0,1-.539-.467L1.448,4.01a.547.547,0,0,1,.068-.349L3.175.788a.544.544,0,0,1,.743-.2l2.874,1.66a.544.544,0,0,1,.2.743L5.331,5.865a.545.545,0,0,1-.274.235l-2.5.973a.549.549,0,0,1-.2.037Zm.189-3.067L2.8,5.81l1.681-.655L5.777,2.918,3.845,1.8,2.552,4.043Z" transform="translate(36.305 13.533)" fill-rule="evenodd"/>
      <path id="Trazado_897802" data-name="Trazado 897802" d="M4.826,10.051a4.766,4.766,0,0,1-3.839-7.6.534.534,0,0,1,.468-.22.544.544,0,0,1,.441.271l1.71,2.961L5.589,4.323,3.879,1.362A.544.544,0,0,1,4.289.549a4.766,4.766,0,1,1,.537,9.5ZM1.428,3.87A3.678,3.678,0,1,0,5.3,1.638L6.8,4.25a.544.544,0,0,1-.2.743L3.679,6.681a.544.544,0,0,1-.743-.2L1.428,3.87Z" transform="translate(0 13.635)" fill-rule="evenodd"/>
      <path id="Trazado_897803" data-name="Trazado 897803" d="M4.512,8.267a.544.544,0,0,1-.472-.272L.362,1.625A.544.544,0,1,1,1.3,1.081l3.677,6.37a.544.544,0,0,1-.47.816Z" transform="translate(6.092 21.21)" fill-rule="evenodd"/>
      <path id="Trazado_897804" data-name="Trazado 897804" d="M1.089,8.775a.544.544,0,0,1-.544-.544V1.981a.544.544,0,0,1,1.088,0V8.231A.544.544,0,0,1,1.089,8.775Z" transform="translate(12.789 37.671)" fill-rule="evenodd"/>
      <path id="Trazado_897805" data-name="Trazado 897805" d="M1.665,8.775a.544.544,0,0,1-.544-.544V1.981a.544.544,0,0,1,1.088,0V8.231A.544.544,0,0,1,1.665,8.775Z" transform="translate(27.882 37.671)" fill-rule="evenodd"/>
      <path id="Trazado_897806" data-name="Trazado 897806" d="M10.612,13.47a6.245,6.245,0,0,0,3.957-1.548.547.547,0,0,1,.118-.1,13.755,13.755,0,0,0,3.924-6.31.545.545,0,0,1,.351-.358,2.687,2.687,0,0,0,1.78-2.46A3.037,3.037,0,0,0,19.653.43l-.206.3C17.866,3.013,17.389,3.7,16.349,3.7a5.3,5.3,0,0,1-1.127-.182,18.637,18.637,0,0,0-4.631-.505,18.667,18.667,0,0,0-4.631.505A5.273,5.273,0,0,1,4.833,3.7c-1.04,0-1.517-.69-3.1-2.975L1.544.453A3.038,3.038,0,0,0,.483,2.7a2.687,2.687,0,0,0,1.78,2.46.542.542,0,0,1,.35.358,13.756,13.756,0,0,0,3.921,6.308.548.548,0,0,1,.124.1,6.243,6.243,0,0,0,3.954,1.545Z" transform="translate(11.156 11.276)" fill="#fec9a3" fill-rule="evenodd"/>
      <path id="Trazado_897807" data-name="Trazado 897807" d="M8.435,2.11a19.613,19.613,0,0,1,4.873.533,4.65,4.65,0,0,0,.885.155c.443,0,.786-.458,2.112-2.374H.565C1.891,2.34,2.235,2.8,2.677,2.8a4.656,4.656,0,0,0,.885-.155A19.627,19.627,0,0,1,8.435,2.11Z" transform="translate(13.311 11.095)" fill="#49648e" fill-rule="evenodd"/>
      <path id="Trazado_897808" data-name="Trazado 897808" d="M.548,9.383H17.28l-.573-4.8C16.335,1.461,12.4.039,8.91.039S1.493,1.462,1.12,4.584l-.572,4.8Zm13.068-2.7h-9.4a.544.544,0,0,1-.544-.544V3.282a.544.544,0,0,1,.544-.544h9.4a.544.544,0,0,1,.544.544V6.14a.544.544,0,0,1-.544.544Z" transform="translate(12.855 1.047)" fill="#3c5174" fill-rule="evenodd"/>
      <path id="Trazado_897809" data-name="Trazado 897809" d="M.7,1.948H9.018V.179H.7Z" transform="translate(16.908 4.695)" fill="#d6d6d4" fill-rule="evenodd"/>
      <path id="Trazado_897810" data-name="Trazado 897810" d="M7.327,5.16a3.651,3.651,0,0,0-.367-2.791A3.693,3.693,0,0,0,4.247.561L5.755,3.173a.544.544,0,0,1-.2.743L2.631,5.6a.544.544,0,0,1-.743-.2L.38,2.793a3.677,3.677,0,0,0,5.125,4.66.548.548,0,0,1,.214-.123A3.653,3.653,0,0,0,7.327,5.16Z" transform="translate(1.048 14.713)" fill="#e6e6e6" fill-rule="evenodd"/>
      <path id="Trazado_897811" data-name="Trazado 897811" d="M.715.905V3.839L4.531,9.171,8.347,3.84V.905A6.941,6.941,0,0,1,4.531,2.1,6.941,6.941,0,0,1,.715.905Z" transform="translate(17.238 23.73)" fill="#fec9a3" fill-rule="evenodd"/>
      <path id="Trazado_897812" data-name="Trazado 897812" d="M1.484,2.8l.253,1.768,1.681-.655L4.709,1.679,2.777.563Z" transform="translate(37.373 14.773)" fill="#e6e6e6" fill-rule="evenodd"/>
      <path id="Trazado_897813" data-name="Trazado 897813" d="M15.167,3.273A2.478,2.478,0,0,1,13.3,1.407H2.451A2.478,2.478,0,0,1,.585,3.273V8.495H15.167V3.273Z" transform="translate(13.836 36.863)" fill="#808da4" fill-rule="evenodd"/>
      <path id="Trazado_897814" data-name="Trazado 897814" d="M3.2,8.495V3.273A2.478,2.478,0,0,1,1.33,1.407H.444V8.495H3.2Z" transform="translate(10.139 36.863)" fill="#808da4" fill-rule="evenodd"/>
      <path id="Trazado_897815" data-name="Trazado 897815" d="M1.161,3.273V8.495H3.913V1.407H3.027A2.478,2.478,0,0,1,1.161,3.273Z" transform="translate(28.93 36.863)" fill="#808da4" fill-rule="evenodd"/>
      <path id="Trazado_897816" data-name="Trazado 897816" d="M1.3,1.556V4.59H8.03a24.615,24.615,0,0,0-.252-3.034H1.3Z" transform="translate(32.627 40.767)" fill="#fec9a3" fill-rule="evenodd"/>
      <path id="Trazado_897817" data-name="Trazado 897817" d="M6.884,4.59V1.556H.409A24.594,24.594,0,0,0,.157,4.59H6.884Z" transform="translate(2.611 40.768)" fill="#fec9a3" fill-rule="evenodd"/>
      <g id="Grupo_1108032" data-name="Grupo 1108032" transform="translate(3.206 28.287)">
        <path id="Trazado_897818" data-name="Trazado 897818" d="M.173,13.178H6.462V9.668a.544.544,0,0,1,.544-.544H8.375V1.07q-.231.105-.459.223a.547.547,0,0,1-.195.1C4.058,3.391,1.224,7.768.173,13.178Z" transform="translate(-0.173 -0.229)" fill="#3c5174" fill-rule="evenodd"/>
        <path id="Trazado_897819" data-name="Trazado 897819" d="M.656,9.935H11.391V1.04h-.668L6.525,6.9a.543.543,0,0,1-.884,0L1.443,1.04H.656v8.9Z" transform="translate(12.481 -1.04)" fill="#3c5174" fill-rule="evenodd"/>
        <path id="Trazado_897820" data-name="Trazado 897820" d="M1.232,1.071V9.118H2.605a.544.544,0,0,1,.544.544v3.51H9.44A18.848,18.848,0,0,0,4.6,3.444a.545.545,0,0,1-.115-.086A11.509,11.509,0,0,0,1.232,1.071Z" transform="translate(27.575 -0.223)" fill="#3c5174" fill-rule="evenodd"/>
      </g>
      <path id="Trazado_897821" data-name="Trazado 897821" d="M3.85,8.429V1.466q-.14-.045-.281-.085l-.009,0A8.887,8.887,0,0,0,1.136,1.04H1.091V8.432a2.459,2.459,0,0,1,2.759,0v0Z" transform="translate(27.074 27.247)" fill="#6b809b" fill-rule="evenodd"/>
      <path id="Trazado_897822" data-name="Trazado 897822" d="M3.275,2.614a1.377,1.377,0,1,0,0,.1q0-.043,0-.085c0-.006,0-.012,0-.019Z" transform="translate(11.981 35.008)" fill="#334562" fill-rule="evenodd"/>
      <path id="Trazado_897823" data-name="Trazado 897823" d="M1.091,2.736a1.382,1.382,0,0,0,2.764-.018c0-.035,0-.069,0-.1a1.382,1.382,0,0,0-2.761.1c0,.006,0,.012,0,.018Z" transform="translate(27.074 35.008)" fill="#334562" fill-rule="evenodd"/>
      <path id="Trazado_897824" data-name="Trazado 897824" d="M3.274,8.429V1.04h-.04a8.913,8.913,0,0,0-2.719.428V8.432a2.459,2.459,0,0,1,2.759,0v0Z" transform="translate(11.981 27.247)" fill="#6b809b" fill-rule="evenodd"/>
      <path id="Trazado_897825" data-name="Trazado 897825" d="M39.657,20.246H.66A.544.544,0,0,1,.117,19.7C.117,9.389,6.19,1,13.656,1h2.195a.545.545,0,0,1,.442.228L20.211,6.7,24.13,1.227A.544.544,0,0,1,24.572,1h2.081c7.444,0,13.5,8.341,13.54,18.61a.519.519,0,0,1,.008.092.545.545,0,0,1-.545.544ZM1.21,19.158H39.1C38.9,9.7,33.39,2.087,26.653,2.087h-1.8l-4.2,5.864a.543.543,0,0,1-.884,0l-4.2-5.864H13.657C6.919,2.087,1.414,9.7,1.21,19.158Z" transform="translate(1.558 26.2)" fill-rule="evenodd"/>
      <path id="Trazado_897826" data-name="Trazado 897826" d="M5.137,5.88,6.675,3.217,4.7,2.078l-.011-.006-.013-.008L2.708.926,1.217,3.51l.054.019A11.92,11.92,0,0,1,5.135,5.884l0,0Z" transform="translate(30.384 24.285)" fill="#ff5959" fill-rule="evenodd"/>
    </g>
  </g>
</svg>
